<svg width="1025" height="769" viewBox="0 0 1025 769" fill="none" xmlns="http://www.w3.org/2000/svg">
<g clip-path="url(#clip0_319_257)">
<path d="M0.935547 0.679718H1024.94V768.68H0.935547V0.679718Z" fill="white" fill-opacity="0.01"/>
<path fill-rule="evenodd" clip-rule="evenodd" d="M622.751 498.922C621.144 522.495 589.157 534.751 569.757 539.78C573.646 516.655 578.668 492.682 575.543 469.229C574.515 461.504 573.165 453.82 571.715 446.164C571.179 443.333 570.626 440.505 570.053 437.681C569.914 436.994 568.789 433.989 569.147 433.304C569.788 432.079 575.215 432.271 576.598 432.325C580.161 432.461 583.658 433.362 586.918 434.786C593.771 437.778 599.544 442.929 604.3 448.615C615.518 462.022 623.964 481.146 622.751 498.922ZM585.719 338.68C567.15 349.676 544.782 355.577 523.602 358.453C491.337 362.835 458.393 357.791 426.849 350.801C419.104 349.085 411.375 347.235 403.744 345.064C403.4 367.419 409.689 388.678 421.972 407.321C432.127 422.735 445.38 435.617 456.964 449.895C467.748 463.186 476.446 478.179 476.878 495.722C477.058 503.043 476.456 509.742 470.326 514.486C464.166 519.254 455.846 521.022 448.308 522.108C429.434 524.828 409.666 523.358 390.91 520.364C387.268 519.782 383.633 519.12 380.039 518.292C375.958 517.353 374.528 516.245 371.12 519.309C363.765 525.919 360.391 535.833 358.725 545.317C355.603 563.079 356.662 583.799 361.162 601.324C365.498 618.205 385.96 627.561 401.119 631.641C446.843 643.946 497.29 626.952 532.375 596.7C533.139 596.04 533.898 595.372 534.639 594.684C537.131 599.873 539.852 604.971 542.826 609.899C544.895 613.328 547.072 616.774 549.681 619.826C550.623 620.927 551.729 622.416 553.017 623.138C555.415 624.481 557.854 623.494 560.568 623.022C580.593 619.545 600.571 614.972 619.612 607.771C648.559 596.823 674.521 578.787 688.241 550.297C695.172 535.906 698.785 520.138 700.534 504.325C702.541 486.169 702.975 467.609 697.865 449.913C688.503 417.483 664.616 391.193 638.457 370.916C622.271 358.368 604.476 347.03 585.719 338.68Z" fill="#5096F1"/>
<path fill-rule="evenodd" clip-rule="evenodd" d="M912.916 123.932C908.684 125.614 904.127 126.082 899.625 126.411C896.093 126.669 893.321 128.085 889.993 128.165C880.727 128.386 871.421 128.802 862.2 130.187C852.938 131.578 844.408 129.761 837.095 136.72C834.492 139.196 831.229 142.043 832.793 146.04C833.511 147.87 834.522 149.183 835.118 151.148C835.792 153.369 836.63 155.467 837.604 157.582C839.473 161.638 848.835 176.744 841.238 178.592C833.002 180.595 821.832 178.254 813.898 175.962C809.269 174.625 804.713 173.058 800.151 171.514C796.539 170.292 791.794 169.599 788.466 167.685C786.258 166.414 785.801 164.246 784.342 162.186C781.688 158.439 779.208 155.248 775.778 152.13C768.664 145.663 759.769 141.272 750.998 137.413C750.432 137.162 749.398 136.579 748.787 136.521C748.127 136.46 747.4 137.14 746.973 137.057C745.804 136.83 745.396 136.094 744.116 135.367C742.396 134.391 735.385 131.142 734.159 133.696C735.306 130.341 736.144 131.309 739.249 131.796C740.617 132.012 741.532 131.385 742.761 131.448C743.893 131.505 744.358 132.15 745.304 132.324C747.037 132.642 748.651 132.402 750.46 132.389C750.946 131.316 751.636 131.324 752.529 132.412C753.028 132.574 753.527 132.735 754.025 132.898C755.827 133.392 757.753 133.297 759.597 133.442C762.368 133.662 769.587 137.04 770.977 133.621C772.459 129.97 767.957 129.06 767.206 126.512C766.474 124.012 769.904 122.545 771.28 121.036C772.848 119.319 773.806 117.812 775.646 116.3C776.724 115.412 778.137 114.585 778.936 113.402C779.671 112.314 779.639 110.555 780.593 109.649C781.73 108.568 781.905 109.316 782.939 108.794C784.966 107.768 784.071 107.82 785.27 106.418C786.295 105.22 787.052 105.256 788.394 104.338C790.358 102.993 791.049 100.365 792.957 98.9199C794.353 97.8618 796.577 97.8636 797.802 96.7647C798.524 96.1174 798.301 95.0684 798.925 94.4573C800.122 93.2831 800.943 93.76 802.438 93.3729C804.959 92.7201 805.775 91.3265 807.631 89.7127C809.327 88.2393 810.403 88.2457 812.526 87.6346C815.425 86.8005 817.299 84.6154 819.915 83.3316C822.379 82.1239 824.923 81.2771 827.415 79.9905C829.215 79.0612 830.949 78.4845 832.592 77.5361C833.147 77.2161 833.195 76.0438 833.911 75.8851C834.733 75.702 835.39 77.0683 836.265 77.1399C838.097 77.2904 840.183 75.2577 841.387 74.0808C841.91 73.5695 842.617 72.1868 843.291 71.9012C844.698 71.3028 845.538 72.4878 846.793 72.02C848.554 71.3636 847.854 69.4414 848.933 68.3815C849.876 67.4567 851.88 67.5193 853.556 67.8121C860.306 68.989 849.8 73.7581 847.825 74.7228C844.502 76.3475 820.324 88.1668 825.98 94.0611C828.973 97.1791 836.279 94.8344 839.532 94.013C845.236 92.5723 851.181 89.7988 857.031 89.1623C857.754 89.0835 859.912 89.6012 860.5 89.3754C861.829 88.8668 861.498 87.8495 862.578 87.3145C864.205 86.5112 867.528 86.5502 869.179 86.7307C870.47 86.8721 871.884 87.6428 873.196 87.5385C874.643 87.4233 876.04 86.582 877.475 86.3109C879.929 85.8485 882.47 86.0751 884.949 86.1468C888.514 86.251 895.641 86.7896 890.461 91.526C886.269 95.3594 879.017 97.0186 873.729 98.6914C865.906 101.164 858.221 103.414 850.499 106.231C845.237 108.149 834.013 111.519 840.277 118.711C840.896 118.127 841.514 117.544 842.131 116.96C842.862 117.699 843.617 119.137 844.787 119.179C845.76 119.213 845.403 118.167 846.323 117.84C849.217 116.813 853.183 116.891 856.234 116.698C863.877 116.214 871.493 115.201 879.146 114.887C886.354 114.592 893.638 114.976 900.704 116.488C902.522 116.877 919.469 121.328 912.916 123.932ZM850.414 197.883C850.798 201.093 849.374 203.69 848.978 206.791C848.5 210.54 848.851 213.842 847.788 217.569C845.722 224.814 844.253 232.226 842.036 239.429C838.121 252.147 831.8 263.379 825.301 274.918C821.985 280.801 816.992 285.659 812.429 290.58C807.753 295.623 804.017 300.587 798.427 304.728C787.256 313.004 775.202 320.365 761.977 324.836C748.135 329.517 733.578 330.935 719.038 330.34C712.586 330.076 705.746 330.729 699.396 329.686C692.644 328.575 685.327 327.212 678.691 325.572C666.509 322.565 654.772 317.46 642.875 312.9C629.589 307.807 617.627 301.306 605.512 293.962C602.306 292.019 598.918 291.112 595.913 288.76C593.378 286.779 590.885 284.884 588.22 283.074C585.161 280.998 582.233 278.728 579.108 276.755C577.241 275.575 574.614 274.421 573.634 272.286C572.285 269.349 573.911 265.661 574.751 262.812C575.845 259.104 577.009 255.442 578.324 251.807C580.551 245.652 586.218 236.159 583.101 229.652C576.53 233.723 573.632 241.726 570.823 248.529C567.468 256.657 565.126 264.765 564.62 273.58C563.604 291.312 566.571 309.976 573.004 326.51C573.96 328.965 575.639 331.628 574.405 334.255C573.11 337.011 569.596 339.339 566.895 340.531C558.35 344.3 549.771 345.398 540.847 347.483C538.417 348.05 535.757 349.755 533.477 349.97C531.938 350.115 530.666 349.61 528.903 349.622C527.133 349.634 525.748 350.625 524.164 350.731C522.781 350.825 521.554 350.016 520.235 350.092C517.285 350.264 516.741 355.321 515.278 350.869C515.013 351.052 513.548 352.712 513.364 352.713C512.947 352.714 512.212 351.476 511.814 351.256C511.038 350.826 510.016 350.801 509.149 350.689C507.236 350.44 505.172 350.415 503.288 350.854C499.794 351.668 496.281 351.325 493.293 351.266C492.614 351.253 492.132 351.8 491.287 351.768C490.902 351.752 490.348 351.071 489.939 350.966C487.577 350.357 485.125 350.812 482.72 350.679C477.067 350.367 471.609 350.216 466.09 348.967C454.778 346.406 443.245 345.893 431.888 343.551C426.102 342.357 420.45 341.706 414.753 340.133C412.751 339.58 410.699 339.319 408.925 338.565C407.231 337.844 407.897 336.884 405.268 338.812C404.087 335.917 403.947 336.212 401.096 335.255C399.993 334.884 397.459 333.964 396.638 333.235C396.556 333.162 394.801 328.755 394.65 328.213C393.919 325.581 394.528 322.572 394.833 319.923C395.522 313.951 396.518 308.026 396.577 302.006C396.603 299.351 397.082 299.274 397.908 297.273C398.163 296.653 398.914 296.702 398.976 295.758C399.061 294.499 397.773 293.623 397.912 292.153C398.097 290.175 400.083 288.171 400.78 286.328C401.618 284.109 401.607 281.762 402.107 279.465C402.776 276.409 404.068 273.541 404.719 270.472C405.273 267.873 405.326 265.806 406.71 263.576C408.095 261.35 407.687 259.533 408.79 257.316C409.802 255.283 411.082 254.553 411.775 252.098C413.453 246.159 416.003 240.279 419.615 235.244C422.792 247.869 426.172 260.913 435.018 270.892C438.662 275.001 443.366 279.147 448.86 280.399C455.072 281.814 460.04 278.15 464.085 273.81C473.723 263.467 477.715 251.922 478.297 237.898C478.442 234.412 478.421 230.921 478.374 227.433C478.352 225.881 477.556 221.897 478.62 220.592C479.786 219.161 483.114 220.055 484.846 219.112C486.975 217.95 489.315 214.843 488.365 212.281C494.041 214.851 499.468 218.234 505.78 218.95C508.279 219.234 510.94 218.802 513.175 218.683C513.108 218.686 514.905 219.053 515.013 219.077C515.456 218.566 515.936 218.442 516.452 218.704C516.911 218.753 517.245 218.999 517.455 219.444C526.452 220.343 535.511 215.897 543.212 211.188C547.711 208.436 552.653 204.363 553.916 199.006C554.367 197.095 553.977 195.294 555.953 194.319C557.558 193.525 560.658 194.67 562.352 194.794C568.311 195.231 574.183 194.665 580.001 196.441C583.551 197.525 589.749 205.12 592.225 199.777C593.299 200.785 592.716 202.58 593.859 203.561C594.856 204.416 598.207 205.018 599.585 205.75C601.72 206.882 602.972 208.389 604.841 209.75C607.137 211.423 609.54 211.552 611.763 213.515C619.462 220.313 628.48 225.237 637.076 230.875C647.275 237.563 656.301 245.447 667.245 250.902C678.438 256.48 689.268 261.14 701.499 264.042C707.047 265.359 712.737 266.458 718.433 266.864C721.119 267.054 723.682 266.958 726.273 267.764C727.847 268.254 728.356 268.499 729.902 268.544C730.803 268.57 732.107 268.05 733.217 268.07C735.496 268.111 736.66 268.017 738.717 268.771C741.044 269.624 742.979 270.137 745.629 270.21C748.677 270.296 750.472 269.125 753.241 268.403C755.473 267.821 757.483 268.099 759.48 266.89C768.358 261.52 775.491 253.319 780.147 244.009C785.492 233.324 789.61 220.298 790.447 208.324C790.927 201.47 789.415 194.786 786.798 188.493C786.059 186.718 781.627 179.157 782.993 177.784C784.542 176.223 789.61 179.8 791.039 180.577C795.572 183.041 803.759 183.83 806.937 187.975C807.746 186.422 812.247 188.724 813.691 189.372C814.885 189.908 815.223 190.877 816.726 190.993C818.142 191.102 819.603 189.973 820.904 189.613C819.953 192.266 823.15 192.39 825.341 192.531C826.918 192.632 828.614 192.384 830.019 192.284C832.708 192.093 832.752 191.489 835.208 190.111C835.112 191.12 835.222 192.106 835.535 193.068C837.113 190.783 840.125 192.37 842.258 191.366C840.717 189.027 847.298 188.386 848.831 188.878C852.689 190.117 850.073 195.039 850.414 197.883ZM548.303 358.649C550.849 357.89 553.411 357.196 555.964 356.471C554.03 358.246 552.021 361.449 549.259 361.949C545.927 362.55 544.615 359.748 548.303 358.649ZM422.618 359.921C426.904 360.434 431.571 360.041 435.328 362.572C433.497 364.678 432.308 366.883 429.254 365.675C426.688 364.661 424.576 361.768 422.618 359.921ZM565.808 475.249C562.994 472.725 563.365 471.596 564.686 468.329C565.255 466.923 566.155 462.555 568.29 463.835C569.048 464.289 569.966 469.049 570.102 470.014C570.404 472.17 569.07 478.175 565.808 475.249ZM581.681 460.592C580.687 456.938 580.721 452.96 579.744 449.217C578.713 445.264 577.444 441.298 577.079 437.213C591.95 439.84 600.395 454.598 606.836 466.914C610.258 473.458 613.614 480.696 614.905 488.012C616.164 495.141 613.979 500.554 611.44 506.907C610.146 510.151 608.007 511.276 605.51 513.419C603.297 515.318 602.468 518.522 600.162 520.228C598.459 521.489 596.245 522.143 594.464 523.416C592.704 524.673 590.944 525.919 589.128 527.094C587.051 528.435 580.829 533.327 578.026 532.283C575.927 531.502 576.862 528.934 577.391 527.324C578.504 523.93 579.286 520.662 579.973 517.124C581.808 507.684 582.802 498.302 583.278 488.7C583.742 479.324 584.175 469.745 581.681 460.592ZM569.244 503.172C569.467 503.636 570.396 507.599 568.323 506.785C566.883 506.218 569.033 503.9 569.244 503.172ZM578.005 345.82C579.76 345.095 580.462 347.24 582.006 347.304C584.054 347.389 584.484 345.111 586.633 345.044C591.888 344.879 599.502 349.957 603.775 352.607C601.683 355.252 600.82 357.958 601.86 361.214C602.777 364.083 606.278 367.291 606.15 370.331C606.018 373.379 602.229 375.342 601.048 378.054C599.962 380.545 599.548 385.527 602.9 386.625C608.666 388.514 609.985 377.714 614.354 377.63C616.222 377.595 618.65 381.107 619.993 382.201C623.002 384.65 626.395 386.439 629.894 388.065C632.256 389.162 635.544 391.325 637.295 388.375C638.699 386.013 637.552 382.269 636.188 380.236C634.623 377.904 620.6 367.23 621.485 366.29C621.957 365.788 625.449 367.171 625.944 367.591C627.062 368.537 627.473 370.078 628.593 371.086C630.304 372.625 632.514 373.234 634.629 373.946C639.043 375.429 641.837 380.647 646.115 383.077C648.583 384.478 650.089 387.169 652.177 389.253C654.91 391.981 657.695 394.84 657.284 398.857C656.998 401.641 656.585 408.125 655.011 410.474C653.302 413.023 650.459 412.046 647.862 412.648C644.941 413.325 642.604 415.604 643.186 418.86C643.79 422.245 646.497 422.487 649.325 422.572C657.301 422.813 654.364 427.878 657.145 433.441C658.656 436.462 661.177 437.648 662.911 434.112C664.308 431.267 661.813 426.782 663.329 424.353C665.175 421.392 675.056 422.198 677.117 424.497C678.679 426.241 679.507 428.639 681.065 430.463C683.429 433.232 684.401 437.114 685.82 440.509C687.326 444.114 688.64 447.771 689.793 451.506C690.604 454.129 692.354 458.284 688.164 456.043C685.237 454.479 683.051 450.949 679.343 450.837C675.675 450.727 673.585 454.537 674.657 457.85C675.693 461.056 680.422 462.468 680.969 465.719C681.571 469.275 675.48 472.903 673.631 475.518C669.372 481.538 672.934 488.316 679.914 483.205C682.388 481.394 684.979 477.74 687.77 476.596C692.185 474.784 692.159 481.495 694.274 483.965C695.413 485.293 695.824 483.943 695.15 485.929C694.901 486.661 693.64 486.89 693.498 487.8C693.396 488.467 693.993 488.82 694.014 489.336C694.084 491.086 694.088 491.344 693.694 493.246C693.259 495.354 693.417 497.974 693.286 500.117C692.985 505.014 692.921 509.691 692.406 514.586C692.121 517.31 691.523 522.86 694.739 524.188C693.594 525.982 692.07 530.972 689.82 530.597C690.003 531.778 689.9 533.287 691.047 534.059C691.322 533.339 691.596 532.619 691.869 531.898C692.5 533.544 691.945 533.734 691.908 534.855C691.955 533.467 690.642 536.79 691.352 536.38C690.748 536.885 689.952 537.173 689.044 537.827C687.776 538.739 687.108 539.999 686.124 541.233C684.343 543.463 684.446 545.716 682.887 548.042C680.675 551.341 677.837 554.598 675.507 557.895C673.61 560.579 669.995 562.126 668.475 565.011C667.508 566.846 667.123 568.98 665.474 570.27C663.111 572.118 659.954 573.859 657.388 575.768C655.774 576.967 654.547 578.632 652.937 579.796C652.121 580.386 649.666 580.984 649.663 582.185C646.574 581.32 644.386 578.164 641.957 576.244C640.334 574.96 636.468 573.293 636.701 570.72C636.893 568.616 639.885 566.005 640.574 563.798C641.159 561.929 641.972 558.441 640.356 556.843C636.964 553.493 633.118 560.684 631.297 562.598C627.541 566.546 625.944 562.565 622.856 559.698C617.923 555.119 614.822 559.87 616.558 565.572C617.438 568.458 620.787 571.032 621.004 573.98C621.243 577.219 617.733 578.847 616.344 581.435C615.033 583.876 614.427 588.164 616.892 590.184C619.611 592.412 621.975 589.776 623.753 587.72C625.134 586.122 626.669 582.607 628.912 582.407C631.722 582.158 636.33 587.262 638.468 588.837C635.22 589.777 633.265 592.497 630.519 594.239C626.976 596.487 622.029 597.019 618.064 598.562C614.328 600.017 610.967 601.201 607.41 603.005C603.189 605.145 598.026 605.68 593.556 607.238C589.566 608.63 585.78 610.582 581.704 611.731C577.11 613.026 572.342 613.805 567.71 614.976C563.749 615.976 559.103 616.938 555.021 616.945C550.892 616.952 550.978 614.396 549.658 610.989C548.089 606.943 545.491 603.391 543.834 599.443C542.257 595.688 544.638 594.262 546.922 591.389C549.073 588.681 548.504 588.257 551.278 590.159C554.93 592.661 557.342 590.968 560.183 588.09C562.711 585.533 563.639 583.406 567.276 585.188C570.916 586.97 574.383 589.87 578.293 591.033C581.374 591.948 583.669 591.283 584.185 587.913C584.742 584.272 582.666 581.688 580.049 579.525C578.057 577.881 573.706 575.929 572.978 573.26C572.211 570.448 576.251 566.346 576.683 563.202C577.227 559.232 575.518 556.314 571.752 559.062C569.02 561.055 567.202 565.378 563.409 565.646C564.462 561.227 566.747 557.3 568.707 553.25C570.35 549.861 571.759 546.012 576.169 545.634C577.599 545.512 578.529 545.661 579.893 545.415C581.694 545.091 584.138 544.833 586.064 544.347C590.594 543.202 594.595 539.704 598.766 537.699C599.723 540.273 601.415 547.604 605.31 543.324C608.191 540.158 605 534.709 607.654 531.187C613.129 523.92 625.053 529.256 632.246 525.509C635.377 523.878 637.926 518.676 633.511 517.107C630.931 516.191 623.482 519.574 621.93 517.08C620.823 515.301 625.46 508.353 626.02 506.443C627.764 500.499 627.481 494.328 627.481 488.206C630.981 489.638 635.41 492.99 639.182 493.449C643.06 493.92 643.742 489.366 642.726 486.375C641.325 482.254 636.658 478.877 633.459 476.222C632.048 475.053 628.356 473.169 627.583 471.39C626.785 469.553 627.928 468.663 628.824 467.067C630.224 464.572 633.616 458.123 629.925 455.786C626.53 453.635 624.625 459.663 622.462 460.952C618.792 463.14 617.534 458.128 616.075 455.577C613.426 450.946 609.755 446.813 606.46 442.646C603.46 438.853 601.612 436.286 601.174 431.453C600.842 427.792 600.094 424.958 604.41 424.126C612.062 422.652 623.265 426.285 629.481 420.058C632.741 416.793 630.412 413.417 626.296 413.585C620.889 413.806 615.748 414.073 610.306 413.634C607.413 413.401 601.365 414.104 599.904 411.122C598.024 407.282 601.212 401.113 597.75 397.748C593.331 393.451 592.248 403.162 592.102 405.843C591.994 407.797 592.495 410.771 591.28 412.461C590.145 414.037 588.072 414.014 586.395 414.584C582.171 416.02 579.989 421.211 585.593 422.309C587.478 422.679 590.107 422.141 591.673 423.539C593.314 425.002 592.687 427.602 592.841 429.574C588.916 425.023 580.755 427.04 575.439 425.35C572.639 424.46 572.166 423.274 570.988 420.562C569.563 417.28 566.314 413.13 566.189 409.501C566.084 406.42 568.65 404.101 569.847 401.445C570.875 399.166 571.805 395.457 571.653 392.9C571.286 386.732 560.16 393.028 557.868 395.388C553.709 399.671 548.581 405.211 550.836 411.278C552.847 416.691 553.914 419.761 546.936 419.335C544.382 419.179 539.018 419.685 537.036 418.606C535.565 417.806 536.118 416.37 536.069 414.29C536.028 412.488 536.164 409.757 535.008 408.182C530.938 402.644 529.986 416.426 527.7 417.919C524.13 420.254 516.571 417.807 517.154 424.736C517.665 430.799 525.858 428.323 528.125 433.539C529.216 436.052 528.984 438.977 530.359 441.402C532.318 444.858 534.729 444.674 536.028 441.071C536.94 438.54 535.724 435.939 536.426 433.551C537.439 430.098 542.263 430.418 545.231 430.028C548.838 429.553 551.982 428.645 555.413 427.535C559.646 426.165 559.416 428.414 560.105 431.67C560.905 435.448 562.127 439.09 562.877 442.924C563.575 446.497 565.428 450.345 565.73 453.921C565.96 456.655 565.034 456.405 562.771 457.983C560.296 459.707 557.573 464.189 554.702 464.926C550.383 466.035 546.03 456.16 542.101 461.213C540.413 463.382 541.066 468.001 542.266 470.242C543.851 473.203 546.765 473.956 544.323 477.348C542.487 479.896 540.18 481.87 540.008 485.299C539.847 488.482 542.011 491.493 545.395 490.558C548.129 489.804 549.745 487.003 551.815 485.303C555.389 482.368 558.323 485.087 561.981 486.748C564.86 488.056 570.152 488.909 571.596 491.985C573.43 495.888 571.079 497.397 567.672 496.287C569 500.651 567.253 503.186 566.774 507.696C566.386 511.347 565.547 514.687 565.012 518.217C564.302 522.93 564.227 522.419 559.377 522.579C555.257 522.715 551.251 522.605 547.136 522.424C543.511 522.265 541.045 522.593 540.882 518.217C540.81 516.286 542.027 509.739 538.222 510.525C534.871 511.217 535.836 517.199 534.715 519.447C533.094 522.701 530.351 521.706 527.3 522.509C524.196 523.327 521.687 525.619 522.487 529.161C523.343 532.942 526.808 532.679 529.82 533.554C534.458 534.9 533.441 541.724 536.148 545.431C537.253 546.943 538.416 548.471 540.271 547.23C543.672 544.953 540.461 539.391 541.36 536.6C542.305 533.665 545.492 534.266 548.504 533.885C552.951 533.324 557.605 531.179 562.035 531.205C561.186 533.762 558.806 535.248 557.949 537.94C557.49 539.383 557.919 542.078 557.281 543.271C556.596 544.553 554.435 544.937 553.541 546.72C552.371 549.055 552.01 551.556 550.641 553.843C547.405 559.251 544.618 564.78 541.178 570.133C537.626 575.661 533.798 580.922 529.33 585.714C524.995 590.364 523.702 588.112 519.977 584.311C518.461 582.764 515.24 580.973 514.819 578.663C514.402 576.385 516.286 574.527 517.317 572.673C518.685 570.215 521.153 565.986 520.552 563.037C519.423 557.499 514.473 562.598 512.596 564.671C509.318 568.292 507.486 572.1 502.532 569.24C499.361 567.408 495.362 562.395 491.2 564.249C487.411 565.937 488.472 570.813 490.803 573.287C492.109 574.673 493.969 575.466 495.354 576.763C498.336 579.559 496.648 580.318 495.287 583.449C494.173 586.013 494.012 591.052 496.065 593.188C500.106 597.388 503.23 588.915 506.98 588.742C508.758 588.661 516.147 593.51 516.674 595.256C517.598 598.319 509.626 601.977 507.508 603.415C502.581 606.759 497.214 610.168 491.672 612.385C485.132 615.002 490.006 606.756 486.431 604.016C481.781 600.452 481.421 610.216 480.944 612.642C479.676 619.094 472.861 619.262 467.363 620.862C463.863 621.881 460.36 622.963 456.824 623.849C453.823 624.601 450.463 624.583 447.554 625.514C445.003 626.331 443.257 627.988 440.404 628.007C439.476 628.014 438.67 627.699 437.775 627.678C435.971 627.634 434.317 628.666 432.592 628.559C429.724 628.38 430.972 627.476 429.973 625.474C429.036 623.596 426.652 622.906 424.797 622.319C419.478 620.638 415.05 622.111 414.278 615.348C414.04 613.271 414.354 604.743 410.403 605.74C405.789 606.902 409.849 617.038 406.985 619.578C405.591 620.814 403.487 620.197 401.807 620.563C399.049 621.162 397.84 623.245 394.821 623.105C392.274 622.988 389.903 621.857 387.683 620.734C384.374 619.059 380.426 617.95 377.667 615.395C373.885 611.891 372.226 606.437 370.614 601.701C368.242 594.725 367.231 587.774 366.85 580.459C366.717 577.909 365.634 576.111 365.181 573.771C364.7 571.283 366.122 570.784 366.449 568.427C366.767 566.135 366.613 563.687 367.095 561.231C367.788 557.7 368.03 554.088 368.702 550.546C369.814 544.689 371.5 538.872 372.884 533.068C373.314 531.264 374.093 525.484 376.318 524.929C377.96 524.519 381.751 526.964 383.272 527.682C386.281 529.101 388.867 531.061 392.086 532.044C393.747 532.551 395.844 532.501 396.934 534.043C398.657 536.484 397.264 541.264 397.978 544.148C398.852 547.679 401.746 549.181 404.078 545.634C405.321 543.744 404.99 541.489 405.157 539.399C405.395 536.385 405.448 535.656 408.709 535.859C412.012 536.066 415.237 537.313 418.624 537.465C421.678 537.601 424.747 537.517 427.798 537.35C435.207 536.944 441.983 535.739 448.931 533.101C453.638 531.314 459.096 527.407 464.283 527.545C471.605 527.739 469.623 534.518 470.625 539.589C471.236 542.675 476.397 552.15 478.38 544.461C479.36 540.657 476.093 535.112 478.029 531.677C480.315 527.618 488.718 530.986 492.541 530.046C495.635 529.285 500.806 524.898 498.621 521.113C497.586 519.32 495.576 519.66 493.784 519.526C490.387 519.272 487.013 518.808 483.644 518.312C481.728 518.03 478.799 517.865 478.033 515.664C477.383 513.796 480.432 508.952 481.094 507.165C483.282 501.248 484.071 496.436 484.08 489.984C484.082 487.077 484.272 484.009 483.805 481.133C483.633 480.079 482.052 476.638 482.792 475.631C483.788 474.276 485.826 475.996 486.644 477.011C488.269 479.034 487.704 478.872 486.78 480.968C485.42 484.051 482.777 490.517 487.26 492.89C491.948 495.372 493.642 486.984 498.084 487.904C500.155 488.333 502.199 491.056 503.868 492.328C505.822 493.818 507.931 495.398 510.227 496.312C513.994 497.812 518.227 496.688 516.705 491.95C515.505 488.214 511.708 485.089 508.993 482.44C504.668 478.221 504.864 476.448 507.852 471.478C509.103 469.398 513.905 460.566 508.339 459.848C505.393 459.467 502.207 464.244 500.651 466.072C497.98 469.209 496.449 470.556 492.475 468.037C488.591 465.575 486.788 463.517 482.09 463.29C476.685 463.029 474.253 454.907 471.388 450.736C463.603 439.406 451.685 433.802 441.636 425.121C436.739 420.89 433.432 415.355 429.708 410.147C427.935 407.666 425.645 405.606 424.2 402.903C423.291 401.203 420.828 397.106 421.469 395.1C422.267 392.603 426.574 391.062 428.365 389.298C429.869 387.819 430.672 385.974 433.037 386.539C435.142 387.043 437.039 389.892 438.76 391.144C440.449 392.373 442.355 393.513 444.228 394.432C447.616 396.094 451.706 396.982 451.905 391.928C452.078 387.555 448.09 382.872 445.209 379.922C443.112 377.775 439.936 375.909 440.352 372.5C440.557 370.809 441.993 367.799 442.831 366.381C445.72 361.5 454.54 364.478 459.333 364.791C465.108 365.169 471.475 364.199 476.065 368.285C477.562 369.618 481.032 372.236 481.767 374.091C482.622 376.25 481.225 377.221 480.449 379.311C479.445 382.011 478.755 387.344 481.644 389.206C486.466 392.313 488.98 383.096 493.993 385.112C498.746 387.024 502.069 392.521 507.495 393.391C514.596 394.529 510.552 385.727 508.095 383.137C504.908 379.779 498.728 376.307 500.751 371.342C501.329 369.923 502.65 366.963 503.838 366.082C506.164 364.357 509.913 365.304 512.576 365.332C519.297 365.404 525.642 364.851 532.229 363.676C534.215 363.321 534.666 363.04 536.066 364.52C538.004 366.566 539.021 369.234 541.275 371.246C538.019 374.755 533.193 378.898 535.457 384.3C537.404 388.948 541.674 386.668 544.563 384.185C545.92 383.019 547.321 380.551 549.119 380.083C551.453 379.475 554.076 381.596 555.987 382.672C558.855 384.289 564.988 389.081 568.246 386.252C572.554 382.51 567.456 376.88 564.488 374.569C562.693 373.171 560.302 372.174 558.791 370.449C556.781 368.153 557.96 367.816 559.178 365.747C561.407 361.961 560.59 357.085 564.156 354.128C566.133 352.488 568.96 351.457 571.218 350.255C573.44 349.07 575.825 346.721 578.005 345.82ZM614.337 360.543C613.47 360.012 612.602 359.481 611.736 358.949C613.718 357.983 615.026 358.098 614.337 360.543ZM662.181 406.544C662.53 404.777 663.893 401.616 665.769 403.269C666.977 404.331 665.657 408.32 668.531 407.217C668.679 409.758 666.786 409.542 669.578 411.803C666.056 411.395 661.194 411.554 662.181 406.544ZM525.47 620.757C526.357 618.377 526.35 614.687 529.08 616.862C529.223 613.98 528.541 604.841 533.773 605.212C535.906 605.363 535.882 607.245 536.446 608.875C537.429 611.718 539.089 614.308 540.487 616.958C535.296 617.168 530.101 618.356 525.47 620.757ZM527.17 653.604C530.137 655.846 531.624 653.199 534.425 652.233C537.01 651.342 539.693 651.876 542.557 651.243C546.109 650.459 550.292 650.578 553.762 650.547C554.617 650.54 556.405 650.675 557.269 650.775C558.843 650.955 558.702 651.281 560.332 651.719C560.961 651.574 561.596 651.468 562.238 651.403C563.024 651.368 563.644 651.694 564.098 652.379C565.563 652.867 566.096 652.542 567.499 652.884C570.84 653.7 573.334 655.713 575.516 658.382C579.959 663.814 580.091 671.978 579.989 678.702C579.96 680.617 579.814 682.522 580.026 684.432C580.219 686.184 581.457 688.831 580.952 690.573C580.185 693.208 577.812 692.615 575.048 692.733C573.421 692.803 571.797 693.852 570.502 693.946C569.25 694.036 568.745 693.574 567.478 693.29C564.171 692.55 560.269 693.606 557.007 694.506C553.66 695.43 550.725 696.341 547.331 696.995C545.122 697.42 543.135 697.662 540.907 697.94C539.08 698.169 538.292 699.131 536.698 699.527C535.161 699.908 533.662 699.337 532.111 699.637C529.997 700.046 528.524 701.597 526.598 702.369C523.943 703.434 519.699 701.843 518.522 705.126C518.062 701.96 515.025 702.82 512.764 702.54C509.039 702.078 505.368 700.407 501.785 699.341C498.847 698.468 488.689 690.416 486.744 693.684C486.747 693.354 487.1 691.482 486.793 691.266C485.709 690.504 485.718 690.923 484.551 690.446C482.766 689.716 482.014 689.057 480.738 687.826C478.157 685.339 474.684 684.038 471.966 681.782C465.136 676.113 462.798 664.436 461.132 656.308C458.953 660.171 459.755 655.214 460.132 653.557C461.024 649.649 459.877 647.721 459.618 643.946C459.379 640.472 460.962 639.785 464.098 639.422C467.961 638.974 471.679 638.349 475.463 637.385C479.076 636.464 482.616 635.425 485.877 633.593C488.861 631.917 491.992 631.258 495.043 629.791C498.408 628.172 501.708 626.471 505.103 624.894C506.633 624.184 513.371 619.099 514.541 619.409C516.942 620.045 514.675 624.25 513.943 625.354C512.062 628.188 508.973 629.502 506.187 631.286C503.674 632.893 496.052 640.51 503.79 639.746C508.917 639.24 512.39 633.866 515.67 639.99C516.828 642.153 518.532 643.888 517.201 646.123C515.342 649.241 509.98 650.727 507.169 652.825C504.773 654.613 499.871 663.044 504.811 663.948C506.231 664.207 508.42 663.871 509.476 662.767C510.188 662.023 510.138 660.491 510.858 659.982C511.879 659.259 513.862 660.154 515.027 659.758C516.687 659.193 517.077 658.287 517.687 656.692C519.46 657.501 519.485 658.586 521.509 657.543C522.18 657.197 522.427 655.927 523.204 655.588C524.248 655.133 524.559 656.625 525.132 656.405C526.684 655.81 526.678 655.139 527.17 653.604ZM420.757 628.808C417.784 629.031 414.537 629.27 412 627.375C415.082 627.561 417.801 628.257 420.89 627.62C422.118 627.367 424.084 626.208 425.342 626.611C429.813 628.045 421.947 628.718 420.757 628.808ZM412.5 367.255C412.456 366.209 411.569 352.139 416.375 357.666C417.691 359.178 416.272 361.203 416.085 362.875C415.769 365.693 416.757 368.517 418.241 370.89C419.626 373.103 422.212 375.041 421.825 377.927C421.485 380.459 418.93 382.621 417.671 384.722C414.575 379.842 412.749 373.128 412.5 367.255ZM401.936 219.59C390.799 220.762 379.718 222.836 368.98 226.037C358.437 229.179 348.609 234.092 338.702 238.799C336.66 230.056 334.522 221.336 332.505 212.586C331.535 208.375 330.608 204.153 329.7 199.927C329.053 196.923 326.702 191.321 327.683 188.366C328.204 186.8 328.891 186.793 330.011 185.826C330.695 185.236 331.887 183.792 332.596 183.483C334.323 182.732 338.758 182.074 340.525 182.181C342.136 182.278 342.978 182.918 344.635 182.455C346.046 182.061 347.231 180.975 348.555 180.38C351.924 178.865 356.13 178.357 359.733 177.555C363.201 176.784 366.781 176.612 370.257 175.848C373.301 175.178 374.748 172.937 377.345 173.018C384.103 173.229 391.576 172.437 398.281 170.822C405.804 169.011 413.988 169.361 421.706 169.167C424.781 169.09 426.942 168.398 426.958 171.822C426.976 176 425.307 180.691 424.456 184.77C422.567 193.814 420.968 202.605 420.254 211.788C419.897 216.382 418.014 216.061 414.28 217.47C410.125 219.037 406.355 219.126 401.936 219.59ZM343.381 312.378C346.125 312.783 345.81 305.277 346.011 303.751C352.554 316.09 359.922 327.965 365.687 340.709C367.034 343.689 368.258 346.738 369.682 349.682C370.656 351.698 372.836 354.404 372.784 356.749C372.728 359.196 370.752 360.112 368.669 361.019C366.418 361.999 365.539 362.488 363.952 361.355C362.032 359.982 360.429 355.754 359.243 353.716C357.432 350.604 355.698 347.448 353.924 344.316C350.711 338.637 346.919 333.2 344.279 327.239C341.806 321.654 338.064 316.848 335.398 311.362C332.758 305.929 329.145 300.778 326.11 295.46C329.158 294.192 332.957 291.023 336.42 291.199C339.997 291.381 339.91 294.834 340.065 297.71C340.228 300.764 339.206 311.76 343.381 312.378ZM352.168 368.127C350.536 370.063 346.856 371.201 344.599 372.275C341.473 373.762 338.273 375.085 335.162 376.602C324.955 381.583 314.791 386.142 304.393 390.716C299.018 393.08 293.709 395.593 288.464 398.232C285.716 399.614 279.662 404.458 276.501 404.581C272.877 404.722 272.792 397.404 271.994 394.659C271.323 392.362 270.078 390.574 269.24 388.397C268.899 387.507 269.164 386.833 268.644 385.952C268.052 384.948 266.393 384.139 265.54 383.274C261.918 379.595 258.916 374.912 255.857 370.768C253.055 366.972 248.275 362.219 246.931 357.567C244.288 348.422 259.643 343.36 265.518 339.686C275.804 333.253 286.14 326.645 295.946 319.498C300.412 316.242 304.785 312.857 309.274 309.63C311.369 308.125 317.174 302.268 319.863 304.355C320.864 305.132 320.883 307.282 321.301 308.409C322.214 310.872 323.6 313.022 325.004 315.231C326.251 317.187 328.024 319.21 328.803 321.393C329.732 323.996 329.689 325.47 331.389 327.805C334.481 332.051 335.941 336.95 338.816 341.279C341.588 345.453 344.251 348.532 346.064 353.196C347.104 355.869 348.745 358.24 350.195 360.698C350.878 361.859 351.592 363 352.204 364.202C353.3 366.35 353.687 366.322 352.168 368.127ZM264.432 403.846C262.47 405.25 259.582 402.89 257.679 402.858C256.851 402.843 256.029 403.489 255.476 403.471C253.813 403.421 252.454 402.304 250.923 401.784C243.856 399.38 235.43 399.288 229.393 394.406C217.4 384.706 223.118 365.244 225.302 352.636C225.747 350.065 226.548 346.505 224.471 344.399C222.194 342.091 218.769 343.468 216.685 345.336C214.547 347.25 213.093 349.932 211.316 352.168C208.485 355.729 205.395 359.095 202.274 362.4C191.185 374.143 179.442 387.58 165.724 396.198C160.019 399.783 154.855 404.641 148.602 407.373C141.08 410.659 148.802 397.973 150.154 395.912C159.007 382.421 171.896 371.742 182.72 359.899C184.763 357.664 187.664 354.651 187.7 351.431C187.755 346.596 183.485 347.03 180.108 348.372C176.95 349.628 175.368 352.753 172.827 354.888C169.664 357.547 165.968 359.703 162.447 361.848C154.853 366.476 146.792 370.359 138.755 374.145C134.996 375.916 131.219 377.649 127.442 379.382C126.405 379.858 120.209 383.789 120.505 380.419C120.545 379.966 124.498 375.165 124.986 374.987C127.42 374.097 128.627 376.783 130.793 373.263C132.332 370.763 132.545 369.466 134.718 367.569C135.088 367.247 135.342 366.431 135.642 365.902C135.605 366.101 137.256 364.495 136.94 364.774C137.374 364.391 138.004 363.689 138.356 363.229C140.055 361.011 143.32 360.969 144.796 358.434C145.359 357.469 145.04 356.231 145.719 355.273C146.67 353.929 148.762 353.357 149.878 352.175C150.835 351.159 151.624 350.331 152.218 349.71C152.627 349.282 153.345 348.982 153.829 348.492C155.034 347.273 154.939 346.194 156.625 345.169C158.139 344.25 158.835 345.11 159.359 342.833C161.201 344.014 160.97 342.286 161.718 341.048C162.69 339.438 163.925 338.72 165.265 337.555C168.213 334.991 170.977 331.174 173.485 327.946C179.723 319.919 184.768 310.533 186.626 300.462C187.071 298.054 187.316 295.621 187.493 293.179C187.587 291.895 187.168 288.768 187.963 287.51C189.198 285.558 191.541 286.333 193.324 285.479C193.93 285.188 194.528 284.333 195.096 284.139C195.891 283.867 196.864 284.132 197.689 283.87C198.01 283.769 198.084 282.826 198.614 282.705C199.654 282.467 200.687 282.845 201.715 282.859C203.964 282.889 206.184 282.493 208.341 281.776C210.303 281.124 211.945 279.629 213.903 279.09C213.703 279.146 217.13 279.418 216.945 279.225C217.109 278.381 217.273 277.537 217.437 276.693C218.738 277.602 223.174 278.8 224.55 278.593C226.762 278.259 226.296 276.265 228.171 278.884C229.233 277.958 230.294 277.032 231.355 276.106C232.159 279.48 237.697 277.843 240.207 278.029C243.744 278.293 246.53 277.629 249.753 278.86C253.673 280.36 257.111 281.94 261.333 282.349C264.283 282.634 265.51 284.021 268.4 284.877C272.284 286.026 272.591 287.294 271.376 291.263C270.391 294.481 269.54 296.962 270.979 300.264C273.532 306.119 280.469 308.531 284.942 312.577C274.464 319.931 264.119 327.165 253.991 335.002C249.747 338.284 245.234 341.572 242.817 346.51C240.588 351.068 239.324 356.545 237.983 361.424C234.906 372.61 243.573 380.138 252.476 385.059C254.319 386.076 267.008 402.003 264.432 403.846ZM247.152 417.367C246.525 415.215 246.607 414.641 248.684 413.869C249.47 413.577 252.483 413.195 252.971 414.274C254.075 416.722 248.272 416.691 247.152 417.367ZM335.442 261.466C336.186 266.24 336.918 271.015 337.583 275.8C337.949 278.444 338.78 280.782 336.811 282.776C335.692 283.908 332.978 284.331 331.549 284.934C329.489 285.804 327.481 286.801 325.5 287.839C321.967 289.689 318.275 290.803 314.788 292.472C313.271 293.196 312.372 294.624 311.059 295.609C309.263 296.957 307.078 297.613 305.224 298.895C301.911 301.188 298.875 303.902 295.564 306.21C291.813 308.826 291.031 307.986 288.924 304.121C287.033 300.651 284.763 299.068 282.04 296.348C280.981 295.29 277.191 289.261 280.41 288.742C281.235 288.608 284.085 289.848 284.731 290.245C285.712 290.847 287.28 294.27 288.078 294.328C289.515 294.433 291.355 290.341 292.251 289.264C298.12 282.199 304.576 275.211 311.377 269.031C314.902 265.828 318.605 262.909 322.601 260.323C325.443 258.485 327.923 255.909 330.725 254.165C331.318 253.652 331.989 253.285 332.743 253.065C334.205 252.401 334.754 252.974 334.39 254.784C335.228 256.555 335.137 259.512 335.442 261.466ZM207.064 255.21C208.49 253.758 210.292 252.597 211.536 250.976C212.238 250.062 212.701 248.427 213.504 247.836C214.902 246.806 216.902 247.281 218.528 245.9C220.098 244.565 221.477 242.967 223.011 241.582C226.336 238.582 229.767 235.824 233.029 232.77C234.883 231.034 236.827 228.782 238.474 227.636C238.911 227.332 239.4 226.88 239.864 226.646C240.856 226.146 241.351 226.655 242.799 226.189C243.757 225.882 244.441 224.669 245.209 224.095C247.036 222.731 249.416 222.191 251.174 220.878C252.932 219.565 253.778 217.526 256.198 216.431C259.125 215.107 261.319 216.153 263.435 213.621C264.298 212.589 264.534 211.288 265.889 210.637C267.521 209.852 268.954 210.685 270.513 209.793C271.564 209.191 272.282 207.929 273.367 207.27C275.309 206.095 277.458 205.97 279.274 204.515C280.807 203.288 279.956 203.414 281.771 202.896C282.569 202.668 283.454 202.57 284.306 202.279C287.035 201.348 291.491 200.208 293.107 197.62C293.928 198.817 294.209 199.06 295.54 198.688C296.239 198.119 296.88 197.494 297.464 196.811C297.892 197.352 298.352 197.385 298.842 196.908C301.722 195.918 304.364 194.217 307.201 193.273C307.603 193.49 308.005 193.708 308.406 193.924C308.965 193.955 309.192 193.682 309.086 193.104C310.202 192.9 311.488 192.409 312.516 191.961C314.488 191.102 316.666 189.06 318.989 189.791C322.868 191.011 323.054 198.925 323.723 202.061C325.373 209.79 327.033 217.516 328.69 225.243C329.364 228.388 329.956 231.556 330.843 234.647C331.423 236.667 332.866 239.646 332.345 241.794C331.706 244.427 329.137 245.284 326.989 246.502C324.028 248.18 321.166 250.042 318.364 251.975C306.469 260.18 297.601 271.464 289.167 283.041C287.604 280.77 283.419 277.582 280.81 276.558C278.983 275.842 277.339 276.419 275.52 275.545C274.223 274.921 273.146 273.702 271.919 272.917C264.43 268.12 255.391 264.155 246.71 262.252C228.899 258.345 211.462 264.394 194.192 267.265C197.696 262.447 202.936 259.409 207.064 255.21ZM326.286 124.465C329.334 114.53 334.467 104.912 341.772 97.4592C345.455 93.702 349.784 90.4181 354.636 88.3291C358.857 86.5131 363.877 84.7713 363.812 90.6112C363.669 103.289 360.741 115.823 360.383 128.521C360.035 140.964 362.118 150.952 369.648 160.979C364.877 162.087 360.108 163.211 355.355 164.39C351.745 165.285 348.002 166.289 344.587 166.904C341.211 167.51 338.106 167.906 334.768 169.047C332.518 169.816 328.993 172.167 326.558 171.657C322.511 170.809 323.469 156.29 323.261 152.802C322.677 142.951 323.379 133.946 326.286 124.465ZM400.253 143.593C405.782 136.881 411.527 129.051 420.829 127.805C429.823 126.6 433.138 137.387 432.566 144.661C432.373 147.122 432.007 153.513 430.219 155.507C428.241 157.713 424.73 156.05 422.217 155.71C411.369 154.241 400.248 156.693 389.37 156.693C392.997 152.325 396.643 147.974 400.253 143.593ZM444.763 170.358C448.536 170.899 451.549 171.474 449.727 175.769C446.08 184.372 443.278 192.582 446.474 201.96C448.915 209.122 456.644 217.816 464.367 219.251C467.074 219.754 471.145 218.854 472.808 221.603C474.29 224.052 472.684 231.395 472.511 234.114C471.869 244.243 469.275 254.294 462.719 262.253C456.885 269.335 449.767 274.878 441.283 268.193C434.131 262.559 429.908 252.48 427.792 243.866C426.662 239.268 426.525 234.68 426.309 229.981C426.118 225.825 425.326 223.189 430.025 222.327C431.285 222.097 434.432 222.169 434.436 220.246C434.443 217.662 431.031 218.631 429.726 218.5C424.692 217.998 427.05 212.144 427.519 208.358C428.318 201.911 429.612 195.536 430.8 189.154C431.811 183.718 431.865 176.594 434.061 171.512C435.343 168.544 442.245 169.997 444.763 170.358ZM454.03 189.449C454.602 185.945 454.907 181.566 458.384 179.629C462.204 177.501 464.117 180.968 466.003 183.801C471.003 191.317 476.537 198.35 477.356 207.68C477.454 208.793 477.931 211.027 476.859 211.797C476.38 212.141 475.237 211.234 474.497 211.288C470.536 211.573 467.671 212.634 463.787 210.398C456.188 206.02 452.648 197.905 454.03 189.449ZM483.909 210.437C483.093 202.278 479.324 195.043 475.115 188.155C473.041 184.759 469.01 181.046 467.579 177.458C466.811 175.536 468.169 173.156 470.96 173.98C472.349 174.391 475.026 178.077 475.955 179.352C478.341 182.63 480.319 186.286 482.206 189.865C484.224 193.69 489.959 207.727 483.909 210.437ZM458.893 129.195C459.334 121.519 459.379 112.704 464.35 106.334C468.203 101.394 475.257 99.2436 480.98 97.3341C488.689 94.761 497.949 94.3639 506.012 95.1953C513.108 95.9279 518.465 100.76 522.843 106.073C527.297 111.476 530.747 118.433 533.81 124.719C534.576 126.292 541.077 136.385 536.68 136.15C534.936 136.056 533.42 132.651 532.084 131.645C531.038 130.858 529.798 130.955 528.86 130.325C527.854 129.65 528.072 129.025 527.292 128.191C521.921 122.455 516.981 125.758 511.188 128.779C510.917 126.778 511.392 123.061 509.718 121.599C507.529 119.685 505.242 122.717 503.671 124.203C502.242 125.558 500.48 128.026 498.679 128.759C496.341 129.71 497.136 128.699 495.105 127.9C491.017 126.292 487.872 131.052 485.805 133.82C485.034 134.852 483.773 137.459 482.392 137.738C481.056 138.007 480.882 137.056 479.731 136.705C476.475 135.712 475.574 138.034 474.537 140.917C473.37 144.159 472.377 147.283 470.649 150.311C467.593 155.669 466.28 157.432 468.697 163.349C465.167 163.873 464.426 164.294 462.675 161.161C460.873 157.932 460.405 155.254 460.518 151.543C460.755 143.782 458.438 137.078 458.893 129.195ZM540.841 165.917C544.537 172.592 546.886 181.881 546.847 189.486C546.827 193.259 546.606 197.899 544.845 201.322C543.155 204.606 539.617 206.25 536.359 207.649C528.504 211.023 519.656 210.984 511.398 209.48C507.112 208.698 502.943 209.203 499.275 206.628C496.515 204.688 493.186 202.805 492.377 199.25C492.039 197.762 492.561 196.515 492.453 195.055C492.587 194.36 492.537 193.683 492.303 193.021C491.821 192.744 491.335 192.474 490.846 192.211C490.46 191.102 491.199 189.866 491.009 188.708C490.781 187.31 489.621 186.172 489.078 184.905C487.584 181.411 488.651 179.457 491.448 177.084C492.117 176.557 492.79 176.036 493.468 175.519C494.076 174.557 494.748 174.553 495.483 175.506C496.815 175.524 496.776 175.935 498.177 175.527C501.245 174.633 503.819 171.368 506.825 170.221C507.993 169.775 509.735 170.154 510.684 169.332C511.531 168.597 510.986 167.055 511.731 166.334C514.108 164.028 517.849 166.214 520.048 162.862C521.843 160.127 521.462 156.247 521.646 153.142C527.156 154.195 529.543 159.476 534.07 162.132C534.965 158.661 535.096 158.765 538.552 157.812C536.986 160.709 539.518 163.528 540.841 165.917ZM545.059 129.07C546.074 130.378 546.849 133.625 545.059 133.938V129.07ZM549.762 140.88C558.175 140.897 563.552 151.533 566.008 158.122C568.678 165.287 571.491 174.844 566.509 181.822C564.598 184.498 562.254 184.743 559.179 184.396C555.474 183.978 553.575 183.442 555.025 179.483C557.741 172.064 555.698 162.632 550.884 156.421C557.505 155.142 553.308 149.068 549.985 146.795C546.103 144.141 542.967 140.865 549.762 140.88ZM357.691 525.393C355.712 530.643 353.7 535.877 352.039 541.286C350.465 546.412 351.377 552.188 349.42 557.117C348.216 556.521 347.871 555.463 346.824 554.82C346.179 554.422 345.055 554.265 344.501 553.827C343.549 553.077 341.24 550.28 340.614 549.195C338.452 545.442 339.894 539.341 341.05 535.484C342.48 530.707 344.924 526.12 348.205 522.356C350.507 519.718 351.777 520.557 354.854 521.857C356.674 522.625 358.548 523.116 357.691 525.393ZM342.697 566.814C341.116 570.012 338.194 572.649 336.458 575.873C334.637 579.258 333.258 583.072 330.935 586.167C328.571 589.323 326.446 588.795 323.19 590.156C322.021 590.644 321.529 591.549 320.589 592.256C318.825 593.578 316.891 594.39 315.037 595.567C313.719 592.331 309.691 576.09 304.565 576.438C300.11 576.74 302.389 585.243 302.963 587.752C303.449 589.871 304.004 592.023 304.743 594.069C305.489 596.135 307.814 599.23 306.954 601.495C305.861 604.373 303.141 604.184 301.779 602.084C300.64 600.328 300.062 597.941 299.222 596.03C298.484 594.35 295.111 585.155 292.195 586.581C289.386 587.954 293.755 596.869 294.486 598.62C296.252 602.848 299.638 606.912 295.163 610.3C288.37 615.444 280.005 619.316 272.395 623.024C267.953 625.188 263.959 628.035 259.296 629.792C254.966 631.424 249.962 631.702 245.775 633.578C244.745 634.04 245.436 634.615 243.931 634.883C242.669 635.107 240.464 634.505 239.111 634.517C236.869 634.538 234.623 634.709 232.386 634.427C231.125 634.269 228.256 632.888 228.71 635.168C226.927 634.673 226.237 632.873 224.936 631.749C223.777 630.746 222.297 630.203 221.003 629.416C218.328 627.788 216.328 625.933 215.525 622.831C213.641 615.547 217.624 607.966 222.54 602.888C225.362 599.975 228.672 597.552 231.259 594.415C232.167 593.315 232.813 592.035 233.965 591.141C235.376 590.045 237.312 589.909 238.678 588.799C239.695 587.974 239.999 586.659 241.065 585.901C242.641 584.782 244.485 585.246 245.974 583.776C246.823 582.937 249.738 578.984 249.534 577.889C250.332 578.156 251.132 578.424 251.929 578.691C252.415 576.255 256.616 573.25 258.688 572.083C259.736 571.493 261.778 571.522 262.558 570.887C263.595 570.041 263.51 568.27 264.333 567.209C266.694 564.169 271.634 562.804 274.761 560.687C278.738 557.993 282.601 554.941 286.194 551.752C293.456 545.307 299.858 537.818 305.088 529.636C307.195 526.34 309.15 522.979 310.65 519.367C311.574 517.144 312.495 513.191 314.776 511.901C317.132 510.57 322.542 512.373 325.18 512.563C329.055 512.843 335.095 512.669 338.568 514.573C342.281 516.61 339.262 518.293 337.351 520.721C334.554 524.273 332.878 528.622 331.481 532.884C330.405 536.162 330.204 539.335 329.5 542.64C328.757 546.134 328.764 550.851 330.486 554.061C332.191 557.239 344.476 563.219 342.697 566.814ZM196.233 631.23C187.891 619.871 194.797 603.244 202.958 594.065C212.804 582.99 226.817 576.762 238.328 567.756C251.638 557.342 265.308 547.668 277.102 535.453C283.08 529.262 288.285 522.589 293.005 515.395C297.011 509.286 299.92 501.148 308.015 500.265C303.24 506.218 302.961 514.795 299.269 521.422C295.36 528.441 289.597 534.278 283.728 539.673C271.336 551.064 257.952 561.5 244.567 571.681C237.735 576.877 231.092 582.308 224.283 587.529C218.185 592.207 211.78 596.207 208.266 603.334C202.203 615.63 201.841 633.846 215.267 641.421C208.349 640.042 200.568 637.13 196.233 631.23ZM923.576 119.016C921.108 114.078 916.482 112.319 911.838 110.387C907.292 108.496 903.137 106.167 898.095 105.562C895.853 105.293 889.53 105.961 889.235 102.712C888.988 100.004 895.595 97.287 897.118 95.2243C899.375 92.167 900.909 87.203 900.033 83.3415C899.203 79.6795 895.642 78.5226 892.317 77.8589C881.974 75.7963 870.977 77.3131 860.607 78.1608C861.876 76.3856 863.665 74.9295 864.683 72.8033L866.327 76.2215C867.263 74.2667 868.278 72.3482 869.443 70.5176C870.23 71.4025 871.019 72.2884 871.806 73.1733C870.497 68.5774 874.9 68.6009 874.437 64.7268C874.257 63.2199 873.236 62.5598 872.986 61.3485C872.494 58.9404 874.353 57.4344 872.237 55.2013C869.882 52.7143 866.03 53.7008 863.289 53.9329C862.945 53.9628 862.446 54.6437 862.001 54.699C861.385 54.777 861.03 53.9284 860.268 53.9737C858.224 54.0943 856.422 55.6819 854.391 56.1642C844.976 58.4 835.558 62.3876 826.522 66.1103C817.323 69.9002 808.292 74.3129 800.272 80.2607C791.688 86.6264 785.488 94.81 778.632 102.873C775.41 106.662 772.076 110.301 769.623 114.666C768.356 116.922 767.21 124.008 764.928 125.038C762.45 126.156 756.22 122.993 753.686 122.409C747.721 121.036 741.784 120.463 735.669 120.739C730.805 120.957 725.673 120.827 720.849 121.422C718.049 121.767 711.071 124.874 710.623 128.349C710.425 129.893 712.194 131.177 712.59 132.624C713.19 134.812 712.199 137.131 712.89 139.324C714.299 143.796 720.838 145.441 724.692 146.849C735.45 150.782 746.356 153.832 757.226 157.352C761.949 158.883 765.987 161.319 770.265 163.765C773.814 165.792 777.051 167.821 773.467 171.628C770.072 175.234 770.495 176.69 771.507 181.658C772.573 186.901 772.943 192.203 774.333 197.395C775.717 202.566 778.303 207.505 777.799 212.976C777.295 218.429 775.039 224.03 772.929 229.028C770.798 234.076 768.445 239.065 766.129 244.032C763.987 248.627 761.668 253.286 756.712 255.247C747.249 258.99 735.16 258.397 725.298 257.037C714.105 255.494 702.542 252.878 691.956 248.884C681.778 245.044 670.583 239.154 662.165 232.195C657.668 228.478 652.798 225.724 648.026 222.397C643.189 219.026 639.517 214.48 635.28 210.444C626.976 202.533 616.753 197.082 606.23 192.733C594.401 187.844 582.188 188.352 569.653 187.823C571.626 183.946 574.166 180.241 575.098 175.925C576.069 171.43 575.366 166.546 574.751 162.055C573.557 153.314 571.295 145.621 565.777 138.561C563.254 135.333 560.308 132.816 556.105 132.347C553.559 132.062 548.854 134.018 547.016 131.861C546.207 130.91 546.396 128.91 545.886 127.739C545.435 126.699 544.528 125.652 544.036 124.523C541.932 119.694 539.307 115.426 536.685 110.845C535.642 109.023 534.835 106.334 533.413 104.801C532.639 103.967 531.644 103.588 531.211 102.978C530.401 101.836 530.028 99.7486 529.353 98.4602C528.197 96.2552 526.727 94.2061 525.03 92.3864C522.318 89.4779 518.827 86.9111 515.108 85.4622C513.043 84.6571 511.529 84.4667 509.372 84.5846C508.74 84.619 508.037 84.9835 507.405 84.9355C505.892 84.8203 506.129 84.2781 504.917 84.0261C496.806 82.3369 485.929 84.707 478.321 87.6165C470.307 90.681 463.798 94.722 458.928 101.984C446.965 119.818 449.753 142.845 454.827 162.488C451.758 161.682 448.701 160.729 445.602 160.046C443.705 159.627 441.115 159.706 439.42 158.704C435.649 156.475 438.716 150.756 438.739 147.061C438.797 137.671 434.366 122.988 424.703 119.022C414.634 114.889 402.385 126.489 396.161 133.067C392.168 137.287 388.537 141.835 384.716 146.206C382.046 149.262 378.52 154.133 373.839 153.335C363.63 151.594 366.744 132.17 367.197 125.605C367.914 115.227 369.442 104.682 369.45 94.2768C369.455 87.9519 368.361 79.4193 360.594 78.6776C349.905 77.6576 339.779 87.3807 333.546 94.8616C317.107 114.588 313.476 140.662 317.873 165.416C318.518 169.045 320.576 173.522 316.649 175.775C311.49 178.735 304.895 180.527 299.351 182.701C286.953 187.559 275.473 194.039 263.801 200.373C252.245 206.645 240.874 212.87 230.448 220.95C220.055 229.005 209.767 237.54 200.299 246.672C195.581 251.224 191.027 255.973 186.731 260.929C182.689 265.591 179.414 270.886 175.02 275.243C172.029 278.21 166.527 282.188 165.87 286.714C165.339 290.367 171.5 292.9 174.28 294.588C176.186 295.746 177.507 295.71 177.645 297.774C177.815 300.348 175.102 304.473 174.136 306.927C171.675 313.187 168.459 318.373 164.23 323.582C154.864 335.122 143.546 344.906 132.803 355.157C122.822 364.682 113.041 374.057 105.724 385.876C103.931 388.772 99.4693 394.719 103.71 397.429C104.807 398.131 108.174 398.686 109.291 397.933C110.676 396.999 109.974 395.592 111.61 394.656C111.2 397.803 125.49 391.654 126.602 391.084C129.605 389.545 132.321 387.741 135.391 386.362C137.192 385.552 137.41 384.425 138.804 383.522C139.55 383.039 139.559 383.687 140.556 383.387C141.454 383.115 143.562 383.012 144.232 382.147C144.25 382.122 144.982 380.028 144.36 380.461C146.794 378.766 148.233 381.331 146.772 383.739C142.451 390.854 136.988 396.089 135.295 404.64C134.68 407.746 133.631 413.512 135.527 416.343C135.596 416.446 136.234 416.146 136.312 416.256C136.384 416.36 137.08 417.327 137.366 417.602C139.041 419.205 138.933 419.919 141.729 419.852C142.969 419.822 145.442 419.663 146.577 419.103C147.431 418.682 147.848 417.643 148.505 417.274C149.169 416.898 149.091 416.703 149.714 416.485C149.842 416.439 150.087 417.53 150.33 417.485C151.662 417.234 152.236 416.438 153.368 415.797C156.629 413.951 159.826 411.921 162.931 410.062C166.057 408.191 168.392 405.582 171.505 403.409C174.813 401.1 177.518 399.33 180.062 396.126C181.823 393.907 183.925 393.099 185.107 392.007C186.51 390.71 188.929 385.704 191.19 385.109C192.22 384.837 193.044 385.749 193.608 385.375C194.243 384.955 193.551 384.15 193.869 383.677C194.464 382.794 194.538 382.647 195.55 381.837C196.845 380.801 198.437 380.523 199.524 379.173C200.733 377.67 200.899 375.986 202.386 374.579C205.964 371.193 209.149 367.626 212.94 364.345C211.476 372.51 210.025 380.617 211.16 388.921C212.259 396.969 215.674 400.573 222.377 404.657C223.853 405.557 225.401 406.865 226.986 407.502C227.949 407.89 229.4 407.659 230.118 407.944C232.549 408.908 231.722 410.881 232.055 413.104C232.572 416.55 235.739 419.202 237.783 421.887C239.502 424.145 242.602 429.282 245.478 430.062C248.075 430.766 250.525 427.728 252.688 426.434C255.949 424.484 259.502 423.086 262.941 421.492C269.658 418.38 276.148 414.666 282.79 411.374C285.824 409.871 288.888 409.259 292.099 408.288C295.956 407.122 299.247 404.891 302.946 403.369C309.597 400.632 315.97 397.366 322.581 394.492C336.264 388.544 351.187 384.458 363.363 375.534C368.871 371.497 375.963 371.067 381.392 367.144C387.05 363.054 383.58 356.8 381.158 351.781C374.539 338.07 370.589 323.831 361.477 311.34C356.743 304.85 352.369 298.144 348.24 291.245C344.588 285.139 344.662 278.223 343.746 271.326C343.132 266.717 342.557 262.088 341.807 257.499C341.332 254.582 339.797 250.907 341.654 248.264C343.649 245.423 348.388 244.214 351.383 242.715C355.105 240.853 358.709 238.849 362.571 237.272C371.396 233.67 380.691 231.177 389.949 228.976C392.709 228.32 404.526 223.627 406.775 226.376C404.012 228.223 403.206 231.576 401.966 234.451C400.121 238.734 398.216 242.815 396.87 247.303C394.088 256.584 391.722 266.013 389.454 275.43C387.201 284.78 384.517 294.204 383.828 303.837C383.475 308.754 383.717 313.674 383.708 318.596C383.699 323.849 382.61 329.001 382.804 334.267C382.934 337.769 383.228 341.976 385.279 344.963C387.179 347.731 390.411 348.04 393.227 349.52C396.943 351.473 398.398 352.306 398.432 356.556C398.473 361.509 398.153 366.373 398.616 371.323C400.23 388.56 406.02 409.015 417.577 422.323C418.346 423.208 440.769 451.494 443.251 447.353C444.961 449.378 447.517 450.118 449.621 451.884C452.928 454.658 456.173 456.876 458.907 460.312C463.884 466.565 468.115 473.893 469.36 481.889C470.429 488.77 469.786 496.997 465.906 502.961C462.013 508.944 453.691 512.869 447.409 515.815C439.151 519.686 430.771 520.121 421.805 519.151C417.381 518.672 412.992 517.924 408.6 517.218C406.773 516.924 404.642 516.923 402.912 516.234C401.057 515.497 400.429 514.681 398.577 514.59C397.194 514.522 396.438 514.828 394.976 514.523C393.166 514.145 391.201 513.457 389.396 512.993C387.389 512.476 385.743 511.741 383.894 510.793C382.182 509.915 380.253 509.745 378.605 508.914C375.765 507.48 374.889 505.083 371.047 506.412C366.991 507.814 367.839 511.323 365.25 513.728C362.949 515.867 360.099 513.89 357.809 512.619C354.439 510.747 350.939 509.19 347.351 507.773C343.475 506.243 339.516 504.912 335.482 503.858C331.07 502.706 326.224 502.478 321.974 500.8C318.239 499.327 316.632 496.476 313.926 493.813C311.08 491.012 307.219 489.945 303.274 490.194C296.09 490.649 291.183 498.417 287.388 503.811C276.785 518.881 265.065 531.72 250.892 543.559C244.12 549.213 236.487 554.023 229.938 559.892C227.176 562.368 225.17 564.689 221.899 566.533C217.602 568.954 213.703 571.992 209.595 574.723C193.528 585.401 181.743 600.958 186.186 621.271C188.186 630.414 192.181 636.832 199.645 642.334C203.034 644.831 206.135 646.909 210.452 646.764C214.528 646.628 218.124 646.486 215.723 641.635C218.765 642.577 221.311 644.902 224.632 646.093C228.458 647.463 233.436 648.318 237.498 648.401C244.003 648.534 251.654 645.104 257.35 643.65C258.942 643.245 262.011 642.579 263.825 641.082C265.268 639.892 264.955 638.483 267.139 637.918C270.001 637.177 271.091 638.043 273.832 636.309C277.808 633.791 282.12 632.296 286.245 629.976C291.802 626.85 297.144 623.325 302.649 620.106C303.383 622.129 307.696 634.152 310.36 628.356C312.678 623.31 305.152 618.991 309.727 613.882C314.092 609.011 315.004 614.133 319.238 616.394C325.116 619.534 324.234 613.669 322.525 610.196C321.842 608.807 320.405 606.712 320.828 605.092C321.644 601.963 324.175 603.799 326.165 604.118C329.299 604.622 331.832 603.759 334.185 601.657C336.147 599.903 339.392 598.389 340.578 596.078C341.171 594.921 341.275 593.332 341.768 592.103C342.419 590.484 342.883 590.877 343.12 588.868C342.893 587.829 342.803 586.778 342.849 585.713C343.364 585.609 343.877 585.505 344.39 585.4C344.406 585.327 344.442 583.3 344.235 583.602C344.715 582.905 345.746 582.61 346.339 581.642C346.884 580.752 346.377 579.046 346.596 577.995C347.04 575.868 348.25 574.151 349.239 572.255C351.331 581.108 350.726 590.341 352.725 599.199C354.367 606.471 358.106 612.99 362.468 618.953C364.49 621.717 367.167 623.678 369.283 626.305C371.074 628.527 371.97 630.484 374.613 631.798C376.372 632.67 378.35 633.12 380.162 633.873C381.321 634.356 383.959 636.575 385.046 636.536C384.099 636.571 386.826 636.655 386.194 636.547C386.241 636.555 385.871 635.36 386.2 635.379C390.153 639.123 394.283 639.132 398.858 641.459C400.954 642.525 401.738 642.459 403.972 642.853C406.867 643.364 409.303 645.015 412.075 645.191C416.342 645.462 421.148 646.036 425.597 645.878C426.807 645.834 429.082 645.055 430.031 646.113C430.658 646.812 429.469 651.865 429.394 653.022C428.612 665.156 430.233 677.895 435.352 688.998C439.597 698.204 444.123 709.095 451.63 716.125C459.952 723.917 471.609 729.409 482.739 731.511C495.062 733.837 507.277 732.095 519.638 731.372C532.18 730.638 543.784 728.859 555.879 725.223C567.127 721.842 577.781 717.435 588.544 712.787C595.864 709.626 605.145 705.077 601.308 695.482C600.38 693.162 596.782 686.711 593.598 689.894C590.781 692.71 595.49 698.039 597.621 699.828C581.558 711.031 562.066 714.736 543.271 718.705C532.949 720.884 522.78 720.792 512.281 720.823C503.384 720.848 494.488 721.104 485.649 719.861C477.652 718.737 468.341 716.628 462.39 710.781C456.165 704.663 450.274 697.359 446.025 689.728C441.363 681.352 440.232 672.296 439.855 662.851C439.657 657.878 439.434 652.844 439.954 647.883C440.332 644.282 442.17 643.854 443.082 641.009C445.189 643.961 446.576 642.87 449.163 641.145C450.835 645.814 450.09 650.666 449.802 655.481C449.523 660.172 450.148 664.928 450.722 669.586C451.696 677.505 455.49 685.764 460.303 692.139C462.479 695.022 465.74 696.239 468.69 698.229C472.451 700.767 476.351 703.13 480.277 705.408C487.67 709.697 495.739 713.364 504.072 714.01C506.991 714.237 509.114 715.758 512.592 715.545C514.657 715.419 516.737 714.712 518.798 714.768C520.863 714.824 522.637 715.485 524.758 715.331C533.573 714.693 542.66 711.805 551.388 710.218C560.838 708.501 570.346 706.652 579.367 703.262C583.276 701.792 586.504 699.897 588.686 696.205C590.244 693.567 589.836 688.837 592.74 687.259C590.838 684.805 591.545 684.372 593.188 682.178C593.955 681.155 596.431 678.447 593.428 678.496C594.341 674.543 592.814 670.72 592.163 666.853C591.883 665.183 591.959 662.654 590.926 661.216C590.323 660.378 589.32 660.362 588.781 659.744C588.224 659.732 587.788 659.5 587.476 659.049C587.439 658.389 587.748 657.986 588.402 657.842C588.251 656.535 589.218 657.004 588.251 654.961C586.932 652.171 584.429 649.742 582.059 647.845C580.04 646.229 578.553 643.359 576.222 642.497C573.189 641.374 570.008 640.155 566.821 639.113C559.595 636.75 552.433 635.847 544.851 637.157C541.379 637.757 537.958 638.493 534.605 639.566C532.643 640.195 529.642 641.891 527.904 640.062C527.307 639.435 526.061 634.105 526.139 633.529C526.45 631.217 531.17 630.284 532.892 629.477C535.524 628.244 540.397 626.926 542.068 624.479C542.769 623.453 541.977 619.096 542.092 619.018C543.196 618.274 547.83 628.854 549.092 629.576C550.917 630.619 556.045 629.24 557.931 629.033C563.56 628.414 569.282 628.063 574.795 626.72C585.367 624.145 595.747 620.162 606.035 616.642C625.607 609.947 644.502 601.122 662.097 590.161C670.314 585.041 678.477 578.498 684.73 571.064C687.55 567.711 689.543 563.735 692.422 560.447C695.744 556.654 694.697 553.233 696.186 548.482C699.201 538.867 702.862 530.132 704.503 520.055C706.193 509.68 706.89 499.087 706.422 488.583C705.496 467.823 704.489 448.14 695.367 429.065C687.007 411.584 676.174 394.504 663.295 380.031C660.301 376.668 657.138 373.463 653.46 370.847C649.501 368.029 645.143 365.819 641.559 362.491C638.618 359.76 636.158 356.543 633.082 353.95C629.305 350.77 624.814 349.364 620.391 347.332C616.151 345.386 612.284 342.854 607.948 341.082C605.31 340.005 602.637 339.01 599.886 338.258C597.854 337.702 595.153 337.667 593.294 336.611C590.353 334.94 587.344 330.078 585.423 327.331C582.62 323.324 581.101 318.662 579.768 314.003C578.145 308.335 576.637 302.632 575.051 296.953C574.508 295.013 572.482 288.26 576.523 289.899C577.705 290.378 578.814 292.509 579.725 293.419C581.451 295.147 583.582 296.691 585.723 297.866C589.177 299.761 592.774 302.043 596.086 303.349C599.005 304.5 602.007 306.756 604.728 308.379C605.141 308.626 605.262 309.474 605.795 309.711C607.049 310.268 607.884 308.732 609.069 309.108C610.687 309.622 610.953 311.147 611.851 312.36C613.153 314.119 613.827 314.259 615.816 315.164C618.028 316.171 619.652 318.161 621.808 319.148C624.429 320.345 630.195 319.416 630.589 323.545C634.66 320.885 639.768 326.05 642.309 328.73C644.867 324.802 649.398 329.401 653.269 328.097C651.127 331.075 651.516 330.779 654.896 331.147C657.749 331.459 659.457 333.354 662.277 334.455C664.23 335.217 666.388 336.499 668.418 337.036C670.337 337.544 671.791 336.405 673.462 336.69C674.615 336.886 675.71 337.883 676.806 338.155C678.196 338.501 680.175 338.921 681.746 339.294C683.657 339.748 685.559 339.331 687.465 339.692C689.689 340.113 691.609 341.438 693.867 341.868C696.385 342.347 699.003 342.027 701.506 342.638C703.787 343.194 705.174 343.834 707.537 343.857C711.062 343.892 714.996 344.358 718.476 343.96C720.329 343.748 721.356 342.808 723.454 343.727C724.853 344.34 725.691 346.233 727.598 345.366C725.585 344.559 727.352 341.417 729.571 343.824C730.096 342.474 730.435 341.721 731.895 341.278C731.822 342.599 731.606 343.925 733.29 344.202C733.419 343.282 733.549 342.364 733.678 341.444C737.339 344.232 738.206 345.216 741.661 341.814C741.569 342.928 741.099 344.188 742.231 344.977C742.955 343.772 743.68 342.568 744.405 341.364C745.629 345.25 751.472 343.909 754.304 343.22C755.403 342.953 758.437 342.531 759.154 341.63C759.651 341.006 759.59 340.517 759.774 340.134C759.937 339.794 758.075 338.958 759.66 338.47C760.853 338.101 761.783 340.718 763.184 340.614C764.434 340.521 764.939 338.405 765.838 337.976C765.924 337.936 766.534 338.83 766.957 338.634C767.614 338.33 767.988 337.529 768.714 337.245C770.285 336.63 772.317 336.783 774.076 336.054C776.308 335.13 778.557 334.689 780.835 333.927C783.723 332.962 785.033 331.065 787.377 329.513C787.927 329.149 788.499 329.361 789.039 329.104C789.766 328.757 790.528 327.944 791.394 327.561C794.108 326.357 796.427 325.538 799.002 323.877C801.298 322.395 804.329 321.301 806.373 319.523C808.074 318.043 808.992 315.883 810.703 314.377C813.16 312.215 819.509 309.503 818.479 305.28C822.589 305.908 823.595 303.247 825.103 300.312C826.538 297.52 829.479 296.683 831.402 294.137C832.233 293.037 833.571 291.511 834.03 290.255C834.304 289.508 833.618 288.728 833.803 288.218C834.656 285.872 837.945 284.848 839.468 282.732C841.405 280.04 842.027 276.636 843.643 273.871C843.961 273.327 844.744 273.004 845.047 272.424C845.242 272.051 844.836 271.127 845.072 270.761C845.636 269.892 846.522 269.592 847.088 268.787C848.458 266.838 848.708 264.067 849.939 261.857C850.242 261.313 851.298 259.793 851.431 259.469C851.876 258.381 851.741 257.666 851.971 256.455C852.039 256.091 852.743 253.984 852.887 253.683C853.339 252.743 853.776 252.604 854.467 251.572C856.196 248.989 857.269 244.932 857.411 241.796C857.472 240.466 857.029 239.091 857.511 237.822C857.926 236.725 859.206 236.048 859.689 234.899C860.955 231.886 860.748 227.626 861.097 224.403C861.475 220.89 862.599 217.427 862.909 213.94C863.06 212.252 862.268 210.757 862.326 209.167C862.393 207.346 863.338 207.006 863.702 205.491C864.117 203.761 863.509 201.768 863.88 199.913C864.226 198.187 864.728 196.59 864.871 194.82C865.244 190.21 864.718 185.387 864.518 180.775C864.44 178.985 864.202 177.118 864.675 175.366C865.056 173.956 866.612 172.379 866.561 170.85C866.402 166.124 862.622 170.214 860.45 169.89C857.924 169.513 857.459 163.845 856.794 161.695C855.167 156.443 853.541 151.191 851.914 145.94C859.667 143.921 867.729 144.503 875.645 143.958C883.423 143.423 891.017 141.735 898.559 139.834C904.927 138.23 911.894 137.299 917.616 133.873C922.421 130.997 926.384 124.632 923.576 119.016Z" fill="black"/>
<path fill-rule="evenodd" clip-rule="evenodd" d="M170.655 220.683C173.756 219.071 172.974 216.843 175.252 214.773C187.998 203.189 202.957 193.074 217.949 184.722C233.744 175.922 251.467 172.196 267.611 164.398C269.783 163.349 272.604 161.709 271.794 158.787C270.847 155.373 267.596 156.944 265.279 157.75C257.557 160.435 249.339 161.446 241.507 163.805C224.789 168.84 209.133 177.523 194.971 187.686C186.732 193.597 178.839 200.133 171.803 207.475C169.212 210.177 165.757 213.33 165.083 217.223C164.248 222.041 167.096 222.533 170.655 220.683Z" fill="black"/>
<path fill-rule="evenodd" clip-rule="evenodd" d="M218.935 523.567C218.861 519.309 214.224 520.857 211.839 521.429C202.141 523.757 193.472 525.539 184.89 530.93C168.962 540.934 156.894 556.132 149.086 572.951C148.046 575.189 143.86 582.282 147.215 584.393C149.427 585.786 150.769 581.731 151.595 580.225C155.8 572.563 161.431 565.78 167.093 559.122C179.663 544.34 194.774 534.958 212.853 528.108C215.071 527.268 218.991 526.662 218.935 523.567Z" fill="black"/>
<path fill-rule="evenodd" clip-rule="evenodd" d="M754.916 418.989C751.562 412.24 746.137 403.912 738.632 401.132C734.479 399.594 732.022 402.139 733.255 406.392C734.235 409.774 737.507 411.426 739.95 413.669C746.237 419.441 750.109 428.058 752.405 436.06C754.832 444.519 755.316 453.698 755.273 462.455C755.25 467.079 754.016 471.097 753.346 475.597C753.083 477.366 752.634 481.266 754.667 482.37C759.172 484.818 761.253 472.037 761.713 469.579C763.408 460.514 763.244 452.167 761.817 443.117C760.511 434.841 758.679 426.559 754.916 418.989Z" fill="black"/>
<path fill-rule="evenodd" clip-rule="evenodd" d="M742.029 94.6708C743.862 92.1993 742.525 88.7394 743.071 85.9215C743.642 82.968 745.346 79.9802 746.787 77.3966C749.903 71.8188 753.377 66.3413 757.079 61.1388C760.902 55.7663 765.565 51.1886 769.628 46.0268C771.002 44.2806 773.438 41.7847 772.844 39.683C771.883 36.2801 769.79 37.9386 768.112 39.3647C758.942 47.1626 750.867 56.7773 744.344 66.8758C741.249 71.6686 738.324 76.9173 737.3 82.6027C736.771 85.539 736.765 88.6028 737.636 91.4777C738.183 93.2845 739.827 97.6406 742.029 94.6708Z" fill="black"/>
<path fill-rule="evenodd" clip-rule="evenodd" d="M176.92 510.621C181.515 510.196 186.136 510.044 190.742 509.808C194.151 509.633 197.986 509.843 201.115 508.201C204.264 506.55 202.895 504.075 200.277 503.709C198.772 503.498 196.232 504.514 194.619 504.584C192.872 504.659 191.116 504.605 189.368 504.612C184.259 504.631 178.754 504.592 173.828 506.29C172.219 506.845 169.782 507.701 169.12 509.541C167.705 513.474 174.789 510.818 176.92 510.621Z" fill="black"/>
<path fill-rule="evenodd" clip-rule="evenodd" d="M217.156 150.68C223.829 149.88 230.279 147.88 236.853 146.605C243.104 145.394 244.168 140.466 236.768 140.687C234.283 140.761 210.327 145.306 217.156 150.68Z" fill="black"/>
<path fill-rule="evenodd" clip-rule="evenodd" d="M768.561 397.843C764.078 396.721 766.397 401.694 767.784 403.232C770.35 406.075 771.752 408.204 772.514 411.995C772.959 414.202 772.542 419.185 774.415 420.873C776.26 422.534 776.387 421.431 776.715 419.38C777.638 413.599 775.793 399.655 768.561 397.843Z" fill="black"/>
<path fill-rule="evenodd" clip-rule="evenodd" d="M719.344 83.15C720.614 81.8038 719.252 75.9496 719.402 74.2339C719.585 72.1551 720.077 70.3959 720.697 68.4451C720.998 67.4992 722.512 64.1604 721.696 63.1237C720.567 61.6867 718.688 64.115 718.093 65.0709C716.16 68.1818 715.708 73.3688 716.03 76.8719C716.145 78.14 716.912 85.7254 719.344 83.15Z" fill="black"/>
<path fill-rule="evenodd" clip-rule="evenodd" d="M455.377 576.815C455.588 573.498 458.781 571.2 458.79 567.674C458.802 563.712 456.136 561.996 452.816 564.571C450.814 566.124 449.255 569.907 446.547 570.402C441.116 571.398 438.986 561.642 433.636 562.771C429.005 563.748 431.439 571.703 432.836 574.388C434.317 577.233 437.007 579.229 436.131 582.729C435.091 586.885 431.524 589.281 432.912 594.025C435.49 602.84 441.086 594.598 444.452 591.828C446.85 589.853 448.299 590.204 450.628 592.14C453.818 594.792 456.256 596.593 460.125 598.38C463.537 599.956 466.828 601.055 466.934 595.768C467.018 591.609 463.878 587.471 461.122 584.65C458.834 582.309 455.143 580.506 455.377 576.815Z" fill="black"/>
<path fill-rule="evenodd" clip-rule="evenodd" d="M395.593 563.664C391.601 559.408 386.559 570.264 383.333 571.465C378.104 573.412 376.9 562.976 372.086 563.304C368.339 563.56 368.635 568.93 369.451 571.379C370.329 574.016 372.957 576.171 373.397 578.873C374.074 583.013 366.241 591.29 371.707 595.289C376.374 598.704 378.112 587.167 383.946 591.874C386.81 594.184 394.824 602.783 398.795 598.504C403.487 593.447 392.327 584.811 390.29 580.965C387.534 575.757 401.443 569.901 395.593 563.664Z" fill="black"/>
<path fill-rule="evenodd" clip-rule="evenodd" d="M492.303 415.787C491.158 415.282 489.308 416.117 488.069 416.064C486.739 416.008 485.354 415.403 484.042 415.18C481.191 414.692 476.178 415.397 474.155 412.856C472.091 410.264 473.66 405.06 472.778 401.907C472.298 400.192 471.743 398.076 469.434 398.841C466.754 399.728 466.819 404.649 466.499 406.807C466.028 409.992 465.648 412.421 462.447 413.554C460.077 414.392 457.584 413.97 455.668 415.917C454.264 417.343 453.317 419.948 454.416 421.812C456.066 424.612 459.64 423.162 462.119 424.047C465.9 425.397 465.001 431.574 465.776 435.121C466.272 437.4 467.363 443.782 470.636 443.679C475.098 443.54 473.365 434.574 473.118 431.957C472.867 429.302 472.27 427.05 475.233 426.224C477.736 425.528 481.232 426.821 483.817 426.805C487.082 426.785 490.929 425.965 492.899 423.039C494.024 421.366 494.737 416.861 492.303 415.787Z" fill="black"/>
<path fill-rule="evenodd" clip-rule="evenodd" d="M656.277 526.135C663.372 526.747 659.072 535.49 663.78 538.965C668.272 542.281 668.876 533.129 668.875 530.516C668.872 524.186 676.57 526.526 681.257 525.478C685.256 524.585 689.623 520.431 684.847 516.893C681.4 514.339 675.684 515.524 671.682 514.848C666.259 513.931 667.87 510.31 667.75 506.137C667.707 504.607 667.18 499.153 665.204 498.723C661.585 497.936 661.37 508.095 661.126 510.028C660.094 518.207 654.476 513.224 650.013 517.324C644.179 522.684 652.05 525.77 656.277 526.135Z" fill="black"/>
<path fill-rule="evenodd" clip-rule="evenodd" d="M318.851 373.645C307.767 382.73 295.18 381.428 285.036 371.648C280.746 367.512 278.154 363.344 278.538 357.292C278.882 351.846 280.481 345.828 284.842 342.15C288.514 339.05 295.44 337.938 300.09 337.504C306.607 336.898 312.438 340.446 316.946 344.88C320.872 348.741 325.461 353.66 326.066 359.392C326.703 365.423 323.267 370.024 318.851 373.645ZM320.537 337.492C310.594 327.917 292.963 328.878 282.698 337.61C271.176 347.411 269.206 365.823 280.279 376.561C291.948 387.877 307.352 386.656 319.704 377.269C326.33 372.235 329.925 365.774 330.848 357.485C331.719 349.651 325.974 342.727 320.537 337.492Z" fill="black"/>
<path fill-rule="evenodd" clip-rule="evenodd" d="M512.791 172.68C511.675 176.306 512.448 180.169 512.646 183.863C509.494 181.891 507.532 178.375 504.148 176.741C502.525 181.225 510.612 194.05 515.702 189.846C520.359 185.999 516.922 175.264 512.791 172.68Z" fill="black"/>
<path fill-rule="evenodd" clip-rule="evenodd" d="M529.329 194.791C526.82 195.726 524.488 195.467 522.013 195.946C520.381 196.262 520.169 195.334 519.957 197.203C519.507 201.192 525.943 202.735 528.842 202.679C532.38 202.61 536.257 200.231 535.915 196.358C535.56 192.323 532.057 193.775 529.329 194.791Z" fill="black"/>
<path fill-rule="evenodd" clip-rule="evenodd" d="M531.385 178.026C530.247 176.992 527.624 173.088 525.699 173.756C524.224 174.268 525.266 176.031 525.699 176.913C527.319 180.221 530.499 183.036 533.039 185.69C531.158 186.358 527.534 186.788 528.491 189.684C529.371 192.344 533.358 191.935 535.269 190.815C541.814 186.978 534.66 180.999 531.385 178.026Z" fill="black"/>
<path fill-rule="evenodd" clip-rule="evenodd" d="M537.993 171.746C538.441 173.573 538.681 175.297 537.693 177.01L532.242 167.233C527.858 169.033 535.548 183.119 540.027 181.56C543.125 180.482 541.637 173.861 541.148 171.778C540.886 170.663 540.263 167.117 538.717 166.757C535.676 166.049 537.661 170.399 537.993 171.746Z" fill="black"/>
<path fill-rule="evenodd" clip-rule="evenodd" d="M313.105 368.947C310.577 367.083 306.387 371.448 303.714 371.464C298.311 371.493 301.253 365.156 297.872 363.102C296.109 362.03 288.727 363.111 289.893 358.675C290.594 356.007 293.337 357.933 294.84 356.303C296.726 354.26 294.038 352.63 292.365 351.791C293.099 350.812 297.329 350.382 298.392 351.059C300.226 352.23 300.12 355.742 301.803 357.55C303.987 354.762 302.802 351.259 305.128 348.756C306.031 347.783 308.673 347.052 307.646 345.317C307.05 344.309 304.441 344.642 303.548 343.841C302.769 343.142 302.808 340.888 301.55 340.701C299.495 340.395 299.545 343.535 298.928 344.442C297.071 347.167 288.912 346.227 292.294 351.755C290.041 350.631 283.895 349.742 285.088 353.667C285.393 354.671 286.555 355.285 286.843 356.429C287.093 357.42 286.543 358.833 286.491 359.828C286.393 361.715 286.242 363.921 287.638 365.439C289.557 367.525 292.121 366.007 294.179 366.915C296.984 368.15 295.973 370.719 297.452 372.966C299.389 375.905 302.367 375.002 305.109 374.113C308.379 373.052 308.896 372.956 311.288 375.68C312.382 374.266 315.379 370.624 313.105 368.947Z" fill="black"/>
<path fill-rule="evenodd" clip-rule="evenodd" d="M317.502 357.471C314.864 356.983 315.903 349.121 312.693 352.538C311.489 353.817 312.722 356.316 311.379 357.687C310.477 358.609 309.333 358.065 308.431 358.67C307.619 359.212 307.414 360.252 306.936 361.045C308.633 361.809 309.945 361.908 311.757 361.575C311.757 362.94 310.85 366.958 313.179 366.665C315.345 366.391 314.733 362.358 315.836 361.105C316.955 359.83 321.467 360.421 321.887 358.63C322.406 356.412 318.655 357.684 317.502 357.471Z" fill="black"/>
</g>
<defs>
<clipPath id="clip0_319_257">
<rect width="1024" height="768" fill="white" transform="translate(0.935547 0.679718)"/>
</clipPath>
</defs>
</svg>
