<svg width="1024" height="768" viewBox="0 0 1024 768" fill="none" xmlns="http://www.w3.org/2000/svg">
<path fill-rule="evenodd" clip-rule="evenodd" d="M281.53 633.819C281.649 593.194 282.43 552.555 283.801 511.952C284.819 481.861 286.123 451.747 288.646 421.739C289.645 409.851 290.807 397.953 292.636 386.16C293.769 378.858 294.81 370.903 297.891 364.104C298.9 361.879 299.874 360.432 302.02 359.294C309.956 355.082 320.829 354.463 329.578 353.574C343.922 352.117 358.441 351.697 372.855 351.994C372.01 367.498 371.166 383.002 370.322 398.505C369.672 410.446 369.021 422.387 368.371 434.327C367.961 441.864 366.971 449.615 367.127 457.164C367.254 463.314 374.486 469.199 378.162 474.001C382.671 460.208 387.18 446.415 391.69 432.622C394.074 438.778 396.622 444.881 399.394 450.871C401.223 454.822 403.085 458.889 405.51 462.521C407.726 465.839 408.375 466.307 412.226 465.741C416.862 465.06 420.382 463.685 423.122 467.131C425.551 470.186 427.813 473.302 430.449 476.202C459.556 508.215 504.41 528.096 545.971 537.09C570.45 542.386 595.144 546.687 619.613 552.088C656.973 560.334 695.347 568.465 731.03 582.56C736.622 584.769 742.275 587.141 747.377 590.355C753.003 593.898 757.021 599.26 760.914 604.568C770.426 617.538 781.577 638.811 766.906 652.348C755.659 662.725 738.086 663.768 723.475 664.936C708.372 666.144 693.216 666.733 678.075 667.225C636.835 668.565 595.556 668.854 554.297 668.891C516.6 668.923 478.897 668.71 441.207 667.988C424.108 667.661 407.631 668.059 391.086 663.671C357.224 654.691 323.459 645.344 289.68 636.06C286.964 635.314 284.247 634.566 281.53 633.819Z" fill="#5096F1"/>
<path fill-rule="evenodd" clip-rule="evenodd" d="M625.631 278.773C624.049 280.417 626.613 281.683 627.767 282.042C627.581 280.456 626.816 279.739 625.631 278.773ZM408.801 587.823C408.191 586.385 407.281 585.202 405.618 585.881C402.868 587.002 408.431 587.808 408.801 587.823ZM647.891 356.111C649.028 356.252 653.677 355.961 652.24 353.431C650.574 350.499 648.284 355.203 647.891 356.111ZM564.524 330.172C566.968 328.077 569.158 324.874 569.184 321.546C566.88 323.075 565.649 327.807 564.524 330.172ZM623.131 288.108C625.167 288.211 623.304 285.345 623.324 284.774C623.366 283.549 624.512 282.497 624.326 281.044C624.319 280.985 622.267 276.391 621.726 276.099C620.203 275.279 619.318 276.782 617.951 277.247C615.927 277.936 614.939 277.328 612.766 277.54C610.851 277.727 609.238 278.659 607.236 278.658C606.761 278.658 606.235 277.65 605.689 277.706C604.838 277.793 604.757 278.878 604.155 278.932C602.04 279.12 601.917 278.28 599.944 277.491C596.665 276.179 594.364 279.231 594.438 282.838C594.535 287.616 599.519 289.569 603.338 290.667C608.263 292.082 610.999 292.935 616.003 292.044C617.45 291.785 618.92 292.246 620.062 291.248C621.597 289.906 620.783 287.075 622.535 285.767C622.734 286.547 622.932 287.328 623.131 288.108ZM449.862 478.209C450.271 481.331 449.413 482.939 452.442 485.031C454.23 486.267 456.478 487.08 458.372 488.318C461.115 490.111 465.226 491.263 467.659 493.325C469.204 494.634 469.479 498.34 471.621 498.789C473.444 499.17 475.617 495.876 476.242 494.393C476.934 492.75 476.472 491.397 476.753 489.756C476.942 488.655 477.766 488.426 477.621 487.132C477.47 485.775 476.154 485.058 475.582 483.981C475.07 483.016 474.915 481.647 474.514 480.885C473.567 479.092 471.466 475.283 469.593 474.096C468.015 478.238 466.819 474.041 464.631 472.825C463.815 472.803 462.998 472.795 462.182 472.804C461.759 472.401 461.328 472.006 460.891 471.62C459.882 471.526 458.22 472.065 457.31 472.346C456.81 472.232 456.303 472.165 455.789 472.146C455.107 472.345 454.836 472.725 454.98 473.285C455.277 473.149 453.629 474.149 453.472 474.256C450.219 476.466 447.235 477.348 446.632 482.049C447.709 480.77 448.786 479.489 449.862 478.209ZM475.232 310.355C471.754 301.341 472.858 293.399 473.194 283.964C473.273 281.749 473.745 276.997 471.43 275.527C468.541 273.694 466.137 277.84 464.628 279.556C462.038 282.501 458.423 285.205 457.096 289.027C455.924 292.399 457.133 296.536 458.027 299.877C458.991 303.477 460.183 308.317 463.46 310.311C466.96 312.44 471.705 312.231 475.232 310.355ZM597.836 502.061C597.335 495.152 587.726 497.573 583.405 499.703C580.174 501.296 578.366 503.725 576.331 506.613C574.021 509.892 573.264 510.808 573.448 514.706C573.617 518.262 573.419 521.839 574.31 525.377C574.762 527.173 574.863 527.49 576.055 528.727C576.052 528.724 578.119 530.783 577.544 530.454C580.21 531.976 584.186 532.231 587.318 532.467C591.795 532.803 592.872 532.864 594.689 528.609C595.038 529.35 595.388 530.09 595.736 530.831C595.848 530.307 597.092 524.092 596.805 524.153C596.303 524.261 595.764 525.707 595.518 526.075C595.674 523.212 597.712 521.072 598.699 518.519C599.608 516.172 599.981 513.514 600.682 511.086C601.36 508.736 602.119 505.467 601.463 503.028C600.591 499.789 600.316 500.711 597.836 502.061ZM655.85 349.765C657.411 351.236 656.02 353.615 656.223 355.437C658.345 354.136 657.609 353.439 658.431 351.322C658.96 349.959 660.52 347.351 661.882 349.585C662.455 350.524 660.561 351.814 661.843 352.366C662.597 352.69 664.603 350.166 664.97 349.769C667.499 347.031 669.117 344.232 669.326 340.498C669.384 339.476 669.369 336.926 669.006 336.339C667.955 334.645 665.159 335.647 665.399 332.55C666.512 333.104 667.625 333.657 668.738 334.211C669.084 330.728 665.325 328.667 663.754 325.903C661.964 322.754 660.802 320.463 657.886 317.754C656.54 316.503 654.35 313.926 652.602 313.324C651.243 312.856 650.692 313.547 649.321 313.56C646.455 313.587 642.147 312.812 646.414 315.992C645.547 316.399 644.408 316.652 643.669 317.293C643.121 317.768 642.916 319.125 642.274 319.45C640.888 320.15 639.851 318.784 638.286 320.339C636.639 321.978 638.325 323.011 637.958 323.733C636.903 325.81 635.451 324.777 635.498 327.943C635.575 333.163 638.581 339.342 640.199 344.22C641.15 347.087 642.213 351.57 646.224 350.395C646.072 351.775 645.723 353.113 646.619 354.344C647.456 353.359 647.756 351.197 648.32 350.04C649.152 348.336 650.506 346.69 651.462 345.033C651.322 347.652 651.038 348.38 649.258 350.363C651.6 350.65 654.485 352.527 655.85 349.765ZM484.491 425.627C486.639 424 483.818 422.185 488.056 423.108C489.137 423.344 488.051 424.608 489.683 424.654C490.299 424.671 491.81 423.155 492.237 422.799C492.628 422.473 494.384 420.106 494.666 419.953C494.194 420.207 496.798 419.198 495.985 419.853C497.536 418.604 498.717 416.55 499.414 414.053C501.124 407.932 500.88 400.618 497.335 395.36C495.849 393.156 494.663 390.466 492.424 388.987C489.387 386.981 484.367 385.788 480.975 384.514L482.073 381.843C472.761 386.052 466.339 395.877 465.555 405.859C465.273 409.45 464.25 414.01 466.437 417.193C468.719 420.516 474.474 424.009 477.652 420.318C477.169 422.375 478.586 424.835 480.76 425.363C481.582 425.563 482.358 424.966 482.722 425.019C483.185 425.085 484.162 425.693 484.491 425.627ZM399.011 217.217C392.754 216.472 393.724 227.774 394.898 231.168C395.844 233.906 399.235 237.716 401.029 240.101C403.167 242.942 406.019 245.063 409.052 246.876C410.092 247.497 410.853 247.696 411.75 248.043C412.069 247.726 412.45 247.561 412.895 247.547C413.286 248.199 413.84 248.687 414.556 249.01C416.831 249.718 420.596 249.61 422.857 249.515C426.501 249.361 430.756 247.264 434.381 246.565C436.075 246.238 437.018 246.106 438.516 245.226C439.271 244.783 440.749 241.368 440.96 244.722C441.894 244.147 441.599 243.201 442.282 242.78C442.934 242.378 445.019 241.991 445.796 241.106C446.88 239.872 448.321 237.057 449.075 235.371C449.56 234.289 450.588 231.501 450.507 230.375C450.335 227.99 449.566 228.539 447.528 227.551C446.166 226.891 445.382 226.338 444.021 225.973C443.863 225.931 443.485 226.744 443.218 226.674C442.751 226.553 442.563 226.015 442.236 225.91C439.75 225.104 436.816 222.715 433.742 222.946C432.415 223.046 431.172 225.068 430.49 224.965C429.442 224.806 429.965 222.654 429.234 221.874C427.369 219.888 421.147 220.209 418.731 219.865C412.164 218.929 405.59 218.056 399.011 217.217ZM618.19 389.004C618.789 384.315 619.527 379.658 614.385 377.35C612.455 376.484 610.849 376.797 608.87 376.562C606.299 376.256 606.673 375.149 604.765 377.908C603.71 376.553 604.411 376.113 602.684 375.952C601.971 375.886 598.86 377.91 598.051 378.241C594.676 379.622 590.378 379.494 587.832 382.279C585.358 384.986 583.357 387.588 582.314 391.281C581.788 393.141 581.442 395.068 580.792 396.894C580.089 398.869 578.508 400.571 577.967 402.546C575.764 410.586 585.129 417.924 591.707 420.057C592.554 419.883 593.385 419.938 594.2 420.22C594.774 420.599 595.288 421.046 595.744 421.561C597.814 422.21 598.306 421.996 600.412 421.046C603.884 419.481 607.94 418.948 610.568 422.61C611.379 418.348 614.338 420.884 615.761 418.139C616.547 416.625 614.83 412.431 615.825 411.34C617.514 409.487 622.782 412.782 622.646 408.454C622.596 406.877 620.804 406.355 620.183 405.109C619.068 402.872 619.687 400.504 621.237 398.538C621.382 398.877 621.943 401.106 622.686 400.516C624.656 398.949 621.417 396.481 620.71 395.626C619.545 394.217 618.485 393.141 618.745 391.174C618.906 389.954 620.863 388.685 620.793 387.499C620.739 386.596 618.321 388.899 618.19 389.004ZM526.691 439.629C526.824 442.916 524.724 443.345 523.341 445.606C522.965 446.222 522.94 447.697 522.414 448.6C521.432 450.293 520.749 450.398 520.434 452.047C520.469 451.863 520.96 453.681 520.972 453.888C521.107 456.208 519.494 458.063 519.938 460.614C520.561 464.203 523.288 468.2 525.211 471.185C529.558 477.933 535.635 483.164 543.96 483.641C549.52 483.96 562.601 481.737 563.793 475.924C563.479 475.25 563.213 474.556 562.996 473.842C562.868 472.809 563.251 472.104 564.145 471.727C564.831 471.546 565.368 471.165 565.755 470.582C565.567 469.991 565.257 469.471 564.827 469.023C564.981 468.245 566.292 468.207 566.271 467.705C566.232 466.771 565.41 464.43 565.19 463.365C564.808 461.525 564.599 459.773 564.264 457.921C563.992 456.423 563.073 455.683 562.837 454.309C562.675 453.372 563.627 452.522 563.546 451.528C562.92 450.967 562.411 450.313 562.021 449.566C561.977 448.79 562.168 448.07 562.594 447.407C561.66 440.87 552.41 435.379 545.83 435.229C542.295 435.148 536.259 434.894 533.08 436.741C530.955 437.975 529.53 442.352 526.691 439.629ZM384.782 670.044C380.135 667.949 375.973 665.717 370.996 664.7C367.404 663.965 364.32 661.947 360.71 661.289C352.713 659.831 344.076 658.486 336.406 655.682C328.182 652.674 319.226 651.597 310.797 649.097C306.647 647.866 303.025 647.059 298.733 646.821C294.551 646.59 290.252 644.258 286.072 644.652C282.578 644.982 280.086 647.666 277.352 649.579C273.807 652.06 269.941 654.199 266.131 656.248C262.088 658.423 257.584 659.513 253.594 661.634C250.281 663.394 247.027 665.112 243.611 666.726C225.462 675.302 207.937 683.313 191.57 695.245C196.848 696.851 202.852 695.25 208.097 694.684C215.552 693.878 222.98 693.273 230.361 691.892C234.68 691.085 243.11 688.004 247.234 690.372C250.858 692.452 250.58 697.792 251.1 701.364C254.521 700.044 257.927 698.69 261.378 697.45C264.092 696.475 268.496 693.794 271.262 693.7C278.967 693.439 278.125 704.252 277.375 709.214C281.877 707.685 286.158 706.618 290.522 704.724C294.02 703.205 297.883 702.87 301.281 701.059C309.724 696.559 319.092 693.739 328.132 690.545C338.331 686.94 348.508 683.268 358.62 679.422C362.776 677.841 366.875 675.754 371.127 674.472C375.705 673.091 380.392 672.053 384.782 670.044ZM485.413 257.744C484.767 263.826 485.433 269.959 485.619 276.048C485.837 283.178 485.846 290.232 486.769 297.32C488.435 310.107 490.78 322.897 495.358 334.996C499.526 346.016 506.56 353.808 518.472 356.19C529.174 358.329 539.604 354.66 546.415 346.109C553.48 337.242 555.65 326.043 559.787 315.766C561.81 310.741 563.308 305.688 564.995 300.546C566.007 297.466 571.023 288.624 569.588 285.46C568.187 282.371 559.92 281.315 557.058 279.598C552.511 276.869 548.306 271.398 544.836 267.4C542.511 264.721 541.153 262.74 539.585 266.99C537.7 272.097 539.066 277.997 537.307 282.951C535.576 287.822 531.798 283.017 531.41 279.842C530.666 273.746 531.561 266.821 531.849 260.694C532.386 249.276 533.135 236.07 543.431 229.03C553.189 222.358 563.78 220.282 569.198 208.763C571.37 204.145 573.923 199.307 572.566 194.14C570.998 188.177 568.677 181.941 566.394 176.21C562.008 165.204 555.139 155.621 549.134 145.516C548.323 144.153 548.153 142.406 546.381 142.021C544.377 141.585 539.699 144.994 537.756 145.544C532.465 147.04 527.737 143.936 523.069 147.449C519.323 150.269 516.147 154.327 511.093 154.622C508.917 154.749 505.964 152.806 504.089 153.27C501.7 153.861 501.009 157.426 500.088 159.429C497.973 164.025 495.613 169.784 492.125 173.541C490.941 174.816 488.849 175.21 487.838 176.397C486.661 177.776 487.315 180.576 485.629 180.827C484.652 180.972 483.872 179.647 483.05 179.331C481.653 178.793 480.283 178.69 478.788 178.734C476.022 178.815 473.152 179.483 470.721 180.807C465.068 183.885 462.979 188.566 469.773 191.381C472.496 192.51 475.453 193.35 478.399 193.612C481.632 193.899 484.903 192.89 488.1 193.284C494.265 194.043 496.161 199.199 497.757 204.497C499.951 211.785 501.724 219.164 504.188 226.376C506.201 232.268 509.858 238.257 510.914 244.412C511.563 248.193 510.713 247.911 508.189 250.249C506.266 252.029 505.11 254.366 503.027 256.152C497.219 261.131 492.158 259.804 485.413 257.744ZM860.289 611.727C860.112 610.428 832.583 612.912 829.455 612.59C824.111 612.04 818.422 613.503 812.897 613.316C808.013 613.15 800.968 611.253 796.936 613.624C795.441 614.503 795.404 615.541 793.044 615.093C790.851 614.677 788.541 613.127 786.899 611.69C782.33 607.692 779.538 601.402 776.55 596.217C770.569 585.841 765.447 575.09 760.483 564.178C750.258 541.703 740.42 519.1 730.206 496.62C725.154 485.501 720.283 474.362 714.834 463.449C712.509 458.791 709.956 453.682 708.166 448.803C706.215 443.482 703.65 438.487 701.901 433.032C698.194 421.479 693.764 410.098 690.926 398.217C690.207 395.209 689.94 392.059 689.074 389.094C688.15 385.927 686.263 383.219 685.08 380.153C683.874 377.029 683.871 374.241 683.271 371.048C682.672 367.866 681.21 364.764 680.157 361.716C674.736 364.985 668.563 367.96 663.574 371.845C658.667 375.668 651.507 378.87 653.561 385.781C655.429 392.067 658.737 397.847 660.705 404.125C662.913 411.168 665.625 418.053 667.756 425.112C672.329 440.267 676.332 455.6 680.427 470.891C682.351 478.075 684.755 485.273 686.165 492.58C686.899 496.381 686.779 499.78 688.161 503.462C689.511 507.061 690.791 510.582 691.9 514.267C693.874 520.826 695.758 527.399 697.942 533.89C699.124 537.403 700.069 540.955 700.909 544.564C701.418 546.745 703.149 550.94 702.662 553.198C701.264 559.7 692.664 553.075 690.606 550.421C685.831 544.265 682.406 536.734 678.83 529.841C664.472 502.163 657.412 472.31 650.009 442.18C648.063 434.259 646.184 426.409 643.997 418.57C641.705 410.356 641.038 401.768 638.333 393.6C635.538 385.161 632.687 377.028 630.634 368.345C629.685 364.325 628.681 360.307 627.838 356.264C627.388 354.105 627.369 350.134 624.494 349.704C626.345 363.252 627.029 379.124 632.428 391.83C637.322 403.354 641.212 419.143 636.264 431.378C633.885 437.262 630.121 442.287 627.291 447.892C624.126 454.159 622.064 461.354 619.943 468.032C615.551 481.86 614.255 496.403 611.316 510.548C609.775 517.962 609.745 523.033 611.082 530.328C611.512 532.677 610.753 534.544 612.731 536.05C614.721 537.565 619.323 537.871 621.782 538.74C629.247 541.379 635.665 543.315 643.57 544.18C651.037 544.998 658.049 546.481 665.161 548.927C677.977 553.334 691.304 556.628 703.897 561.046C710.785 563.463 717.428 567.769 724.05 570.857C730.938 574.07 738.245 576.169 744.738 580.179C751.733 584.497 758.65 589.512 765.278 594.353C771.418 598.837 774.361 604.411 776.917 611.389C781.776 624.655 794.027 641.871 782.711 655.257C786.678 656.981 791.218 657.666 795.019 659.509C796.331 660.146 796.722 660.767 798.214 661.133C800.165 661.612 802.676 661.229 804.674 661.359C807.564 661.547 813.654 663.626 816.472 662.786C819.106 662 819.221 658.179 821.113 656.293C823.919 653.497 826.612 655.3 830.045 654.989C835.13 654.528 840.196 653.861 845.284 653.417C855.55 652.522 865.787 652.311 876.087 652.335C870.725 646.384 851.006 657.215 850.522 646.435C849.961 633.961 865.186 637.703 872.587 634.105C865.86 634.303 859.133 634.368 852.419 634.901C848.345 635.225 840.512 637.175 838.208 632.698C835.732 627.884 839.716 622.316 843.447 619.802C848.61 616.324 854.577 614.106 860.289 611.727ZM299.213 445.402C297.979 447.862 299.89 448.853 300.756 450.836C301.952 453.576 300.771 453.031 300.531 455.609C300.37 457.338 300.842 458.154 300.744 459.773C300.703 460.462 299.723 461.377 299.608 462.161C299.401 463.568 300.162 464.216 300.079 465.238C300.038 465.745 300.694 465.835 300.56 466.57C300.444 467.211 298.968 467.662 298.881 468.065C298.381 470.402 299.782 469.232 299.996 470.34C300.354 472.189 299.314 472.506 298.722 474.207C297.701 477.14 298.688 478.507 299.319 481.257C299.853 483.576 299.06 483.592 298.759 485.807C298.576 487.15 298.964 487.314 298.958 488.563C298.94 492.877 297.975 497.363 297.935 501.934C297.84 512.752 296.924 523.413 296.787 534.205C296.652 544.809 295.88 555.545 295.416 566.282C295.19 571.517 294.659 576.734 294.43 581.97C294.163 588.05 294.758 594.101 294.246 600.157C293.781 605.662 294.06 611.185 293.832 616.705C293.725 619.324 292.377 627.249 294.097 629.01C296.331 631.296 305.383 628.862 308.311 629.023C313.815 629.324 319.618 630.432 325.011 631.568C337.792 634.26 350.602 637.688 363.388 640.103C374.049 642.116 384.051 647.237 393.974 651.571C393.065 642.455 391.46 633.562 391.163 624.374C390.897 616.116 391.675 607.901 391.492 599.653C391.101 582.055 390.104 564.652 390.497 547.057C390.898 529.165 392.34 510.896 394.831 493.174C395.976 485.031 396.869 476.356 399.782 468.619C401.102 465.114 403.251 462.544 402.359 458.688C401.392 454.512 399.482 450.146 398.07 446.096C397.032 452.692 393.374 496.645 378.346 483.432C372.478 478.273 369.761 467.096 368.449 459.772C366.677 449.871 367.313 439.465 367.359 429.446C367.451 409.033 369.696 388.208 371.755 367.907C372.166 363.852 374.214 360.226 369.012 360.42C364.135 360.603 359.123 361.758 354.273 362.327C350.075 362.819 345.86 361.621 341.86 362.157C340.026 362.403 338.404 363.489 336.552 363.764C334.215 364.111 331.773 363.603 329.42 363.606C325.455 363.611 320.858 363.59 317.567 366.057C314.11 368.648 311.146 372.936 309.985 377.082C308.825 381.229 309.135 385.896 308.401 390.038C307.782 393.529 307.65 397.837 307.071 401.802C304.562 398.658 304.723 403.196 304.696 404.537C304.665 406.157 302.922 409.435 303.371 410.385C303.661 410.998 305.609 410.674 305.774 411.154C306.113 412.144 304.94 412.562 304.919 413.302C304.836 416.186 305.001 419.167 304.994 422.075C304.314 421.555 303.632 421.035 302.951 420.514C302.593 421.292 302.48 422.306 302.139 423.093C301.985 423.451 300.547 423.352 300.479 424.056C300.39 424.975 302.402 426.745 302.79 427.749C303.485 429.543 303.928 428.835 302.75 430.769C301.394 432.996 299.174 433.12 299.529 436.357C300.247 435.807 300.873 435.167 301.409 434.438C301.745 436.37 300.905 438.073 300.803 439.997C300.736 441.255 302.267 446.276 301.113 447.116C300.628 447.47 299.331 445.538 299.213 445.402ZM400.607 286.994C400.616 282.756 394.429 276.238 392.301 272.691C388.907 267.032 385.257 261.909 380.942 256.908C376.607 251.884 371.979 247.095 367.775 241.961C366.035 239.838 364.744 237.358 362.97 235.279C360.753 232.683 360.285 233.481 357.539 233.55C355.451 233.603 354.089 233.248 352.159 233.868C351.134 234.197 350.47 234.686 349.369 234.989C348.68 235.18 347.771 234.511 346.846 234.834C344.558 235.631 343.78 237.671 341.019 237.629C340.688 237.624 339.628 236.839 339.475 236.883C339.288 236.937 338.43 237.592 338.46 237.585C338.276 237.627 338.329 238.926 337.839 239.151C337.001 239.537 336.407 238.243 335.644 238.327C333.716 238.539 332.282 240.529 330.149 241.011C327.409 241.63 325.039 240.727 322.422 242.002C320.331 243.02 319.274 245.336 317.535 242.942C315.96 246.286 313.061 245.273 310.165 246.682C306.127 248.647 301.75 249.643 297.45 251.127C288.603 254.18 279.694 257.308 271.07 260.983C253.181 268.607 235.857 277.061 218.368 285.257C201.264 293.273 185.444 303.902 170.051 314.602C162.504 319.847 155.001 325.357 149.114 332.54C147.33 334.716 144.351 338.096 145.553 341.158C146.825 344.396 152.201 346.406 155.241 347.027C159.227 347.843 163.609 348.116 167.667 348.387C172.048 348.681 176.754 348.826 181.09 348.767C189.636 348.649 198.018 347.816 206.604 347.627C216.371 347.411 225.946 345.351 235.693 345.229C246.408 345.095 257.001 343.752 267.732 344.171C288.416 344.981 309.082 345.578 329.827 345.678C332.408 345.69 334.939 345.379 337.474 345.829C339.531 346.193 341.017 346.913 343.223 346.755C345.278 346.608 347.183 345.709 349.277 345.6C352.027 345.457 354.844 345.91 357.608 345.853C366.94 345.662 378.008 344.814 387.004 347.765C390.577 348.938 395.069 352.353 392.891 356.779C390.737 361.155 385.235 357.588 381.829 359.577C378.656 361.43 380.416 366.486 380.64 369.509C381.063 375.237 381.14 380.935 380.989 386.675C380.656 399.351 379.884 412.012 379.736 424.692C379.665 430.851 379.753 437.008 380.078 443.159C380.365 448.588 380.174 454.497 382.03 459.678C384.615 453.209 384.93 446.067 385.955 439.25C387.065 431.875 388.15 424.5 389.205 417.116C389.832 412.73 390.483 386.388 399.066 389.829C408.19 393.486 405.018 413.751 405.432 421.037C405.823 427.914 406.526 434.765 408.084 441.484C408.809 444.607 410.801 457.869 414.805 458.726C417.742 444.847 420.847 430.99 423.006 416.962C423.959 410.77 424.8 404.531 425.18 398.275C425.378 395.019 425.137 387.192 429.844 386.813C443.68 385.698 434.398 443.995 444.737 451.329C448.561 443.722 450.056 435.789 451.094 427.356C451.566 423.517 452.576 419.195 451.979 415.345C451.196 410.308 450.346 407.22 451.398 402.015C452.258 397.754 452.877 393.379 453.871 389.155C454.588 386.111 456.459 384.625 457.446 381.88C460.227 374.151 460.048 364.367 461.157 356.254C462.28 348.037 463.464 339.959 462.008 331.67C460.567 323.461 454.562 320.851 447.735 317.462C440.856 314.048 434.219 310.296 426.665 308.79C418.183 307.1 410.399 305.46 401.717 305.011C386.395 304.22 371.379 305.138 356.126 305.864C339.166 306.672 322.189 305.665 305.238 305.432C296.998 305.319 288.603 305.16 280.377 305.294C276.255 305.362 272.256 306.077 268.107 305.973C264.572 305.885 257.662 306.975 254.568 305.095C252.14 303.62 252.143 300.352 254.193 298.551C256.224 296.766 260.207 296.672 262.743 296.121C270.848 294.362 278.927 293.352 287.09 291.94C291.791 291.127 295.735 290.857 300.446 291.086C305.021 291.31 309.687 290.002 314.313 289.78C324.116 289.312 333.976 288.848 343.784 288.695C362.792 288.399 381.581 286.948 400.607 286.994ZM410.526 472.919C408.997 473.509 409.386 480.814 409.247 482.273C408.834 486.642 408.381 491.006 407.992 495.377C407.094 505.468 406.418 515.581 405.866 525.696C405.315 535.812 404.661 545.96 404.694 556.094C404.709 560.408 404.902 564.718 404.815 569.032C404.75 572.257 403.331 578.291 406.083 580.582C407.929 582.119 411.545 581.427 413.702 581.285C417.964 581.006 422.237 580.721 426.51 580.689C431.446 580.651 436.348 581.182 441.287 581.053C443.182 581.004 445.298 580.688 447.174 581.045C448.533 581.306 450.016 582.478 451.291 582.529C452.229 582.567 453.442 581.636 454.479 581.453C456.093 581.168 457.987 581.498 459.629 581.478C460.797 581.464 463.613 580.936 464.687 581.626C465.734 582.298 465.331 583.829 466.288 584.168C466.652 584.297 468.73 581.829 469.086 581.673C470.677 580.979 472.997 581.519 474.674 581.538C479.502 581.592 484.333 581.287 489.163 581.333C493.871 581.377 498.412 581.925 502.931 582.472C505.919 582.834 509.35 581.927 512.522 581.661C517.593 581.236 522.686 581.315 527.77 581.417C530.322 581.468 532.876 581.508 535.428 581.571C536.032 581.586 537.228 581.351 537.811 581.525C540.153 582.228 538.667 582.269 540.322 583.338C538.151 581.935 545.18 581.021 545.585 581.018C548.775 580.994 551.698 582.561 554.353 582.254C557.229 581.922 560.165 580.145 563.329 580.696C564.808 580.954 566.036 582.608 567.135 582.798C568.911 583.105 569.518 581.822 571.147 581.18C574.397 579.898 578.168 581.015 581.561 580.793C586.324 580.482 590.91 580.471 595.691 580.407C604.414 580.292 613.136 580.148 621.86 580.233C629.893 580.311 636.347 583.532 644.336 583.357C648.526 583.266 652.787 582.9 656.971 583.001C660.564 583.086 662.399 585.764 659.683 588.91C657.847 591.037 654.475 591.262 651.886 591.651C648.043 592.23 644.269 593.062 640.439 593.704C631.332 595.23 621.8 595.183 612.588 595.46C575.019 596.591 537.442 599.931 499.85 600.284C483.344 600.439 466.661 601.829 450.207 601.181C441.028 600.819 432.055 602.792 422.805 601.374C418.905 600.776 415.071 600.413 411.139 600.132C410.627 600.096 407.624 599.515 407.057 599.773C405.382 600.536 406.317 599.839 405.614 601.776C404.461 604.958 404.942 610.033 404.948 613.421C404.96 618.82 405.223 624.23 405.404 629.626C405.579 634.796 405.866 639.962 406.174 645.127C406.301 647.264 405.46 655.299 407.108 656.892C408.383 658.126 414.348 657.542 415.962 657.197C417.898 656.783 418.079 656.681 420.175 656.927C421.721 657.109 422.271 657.064 423.819 656.897C428.252 656.418 433.329 656.333 437.78 657.134C441.234 657.755 444.862 656.116 446.184 659.749C448.419 657.013 448.368 658.589 450.824 659.139C453.354 659.704 452.579 658.07 454.723 657.845C456.234 657.687 457.582 658.881 459.216 658.892C461.915 658.909 464.343 658.196 467.229 658.556C479.971 660.146 492.893 661.575 505.742 661.693C511.073 661.743 516.341 661.825 521.643 661.987C524.348 662.069 526.906 662.351 529.566 662.67C532.073 662.972 534.043 662.369 536.649 662.237C542.412 661.943 548.458 662.821 554.222 663.136C556.932 663.284 560.326 662.818 562.925 663.174C565.537 663.531 565.734 665.515 567.811 666.665C568.139 660.228 581.6 664.351 585.104 664.359C586.48 664.363 588.161 663.777 589.822 663.883C592.571 664.06 595.339 664.105 598.092 664.202C602.482 664.356 606.725 664.622 610.895 664.09C616.343 663.396 622.26 664.136 627.763 664.102C633.755 664.064 639.748 663.983 645.737 663.787C651.805 663.588 657.862 663.217 663.929 663.022C669.199 662.852 674.79 663.277 679.985 662.891C681.332 662.791 682.62 661.804 683.824 661.753C685.493 661.682 687.362 662.399 689.288 662.234C695.359 661.716 701.016 661.631 707.152 661.652C717.678 661.688 728.614 659.744 738.706 656.956C743.358 655.671 748.193 655.601 752.812 654.223C758.144 652.631 763.027 649.856 767.934 647.288C771.777 645.276 777.18 644.34 775.615 639.253C773.945 633.822 771.278 628.556 769.29 623.221C767.562 618.583 766.46 614.064 762.714 610.575C759.012 607.127 754.283 604.812 750.339 601.633C741.743 594.705 732.77 590.562 722.591 586.459C712.331 582.323 702.971 576.224 692.193 573.474C682.185 570.92 672.543 567.496 662.737 564.879C652.008 562.016 640.944 560.978 630.123 558.433C619.752 555.993 609.57 552.405 599.062 550.547C587.693 548.538 576.219 547.504 564.892 545.052C555.289 542.974 546.127 538.903 536.474 537.279C533.654 536.804 530.605 536.514 527.876 535.628C525.324 534.799 523.498 533.121 520.918 532.441C514.962 530.872 509.786 528.733 504.147 526.183C501.776 525.11 500.462 523.792 498.407 522.462C495.956 520.877 492.817 520.314 490.066 519.44C484.767 517.757 479.489 516.102 474.735 513.147C469.807 510.085 465.28 506.623 460.744 503.045C458.823 501.53 456.769 500.009 454.8 498.592C452.374 496.847 449.885 496.531 447.166 495.391C435.373 490.443 430.209 478.827 423.785 468.72C423.182 476.905 415.351 480.703 410.526 472.919ZM578.129 329.544C578.942 325.878 580.101 320.617 575.532 320.412C575.238 320.399 572.211 321.155 571.899 321.356C570.342 322.357 569.753 325.696 569.159 327.317C568.636 328.747 568.273 330.651 567.111 331.731C565.965 332.798 564.768 332.824 563.698 334.102C560.443 337.991 558.018 344.671 556.049 349.366C558.72 348.72 556.779 350.512 557.915 351.533C559.69 353.127 559.137 352.839 561.66 353.086C566.056 353.516 568.062 352.345 571.499 349.607C574.414 347.285 575.35 345.764 577.028 342.412C579.427 337.624 578.257 334.573 578.124 329.541C579.327 330.648 580.53 331.755 581.733 332.863C581.36 331.412 580.986 329.961 580.613 328.511L578.129 329.544ZM451.677 40.0696C454.013 32.0736 458.377 31.4826 464.244 37.2276C465.174 35.1726 466.275 31.9816 468.98 31.9996C470.897 32.0126 471.236 33.5626 472.522 34.6086C474.074 35.8736 475.284 36.3176 477.254 36.6546C481.553 37.3896 485.548 37.1376 489.594 39.0596C493.28 40.8096 495.033 43.3656 497.871 45.9866C500.526 48.4386 502.463 46.8506 505.494 48.0916C508.864 49.4716 510.371 53.5556 511.024 56.8646C511.821 60.9126 510.991 62.2026 513.805 65.1416C516.459 67.9146 517.867 71.4456 518.187 75.2556C518.488 78.8586 517.693 83.1346 515.613 86.1726C513.272 89.5946 510.846 88.6486 513.894 92.7136C515.428 94.7606 515.601 99.1176 517.446 100.43C520.674 102.723 524.842 99.0236 527.693 98.0926C531.567 96.8276 530.703 98.9436 532.402 101.496C534.913 105.266 536.406 101.376 539.831 102.129C541.09 102.406 541.459 103.765 541.902 103.928C543.466 104.508 541.805 104.293 543.592 103.648C544.78 103.22 543.966 100.916 546.359 102.231C548.022 103.146 546.77 104.773 547.526 105.951C549.011 108.267 551.216 106.917 552.314 109.906C553.406 112.883 554.885 116.831 555.492 120.086C556.232 124.04 554.495 127.481 554.749 131.222C555.015 135.129 558.886 137.762 561.294 140.501C573.103 153.925 578.103 171.581 581.955 188.647C585.536 204.508 579.234 222.464 566.86 233.214C560.587 238.664 552.75 241.001 546.726 246.999C544.052 249.661 544.087 250.504 547.273 252.686C549.883 254.473 552.277 256.75 555.043 258.162C562.154 261.792 569.083 264.385 577.023 265.909C581.027 266.678 585.196 266.37 589.247 266.226C593.464 266.076 598.224 266.674 602.346 266.159C605.987 265.704 608.867 262.765 612.679 263.077C614.173 263.199 615.089 263.77 616.61 263.635C618.607 263.459 620.287 262.402 622.411 262.456C625.64 262.538 628.835 262.592 631.957 262.71C635.503 262.842 639.671 261.871 643.2 262.484C646.549 263.065 650.532 266.077 653.445 267.833C657.036 269.998 661.347 272.502 664.562 275.147C667.599 277.647 669.741 281.625 672.11 284.729C674.615 288.013 677.514 290.947 680.033 294.216C689.951 307.085 700.398 322.936 703.499 339.138C704.284 343.238 704.241 347.287 703.65 351.405C703.121 355.083 699.67 356.481 699.565 360.435C699.352 368.437 703.186 377.714 705.412 385.298C707.757 393.283 710.694 401.039 714.331 408.548C715.739 411.456 717.524 413.86 718.41 416.872C719.492 420.551 721.14 424.041 722.345 427.752C732.771 459.851 748.933 489.732 760.714 521.344C767.045 538.331 773.74 555.172 780.643 571.942C784.04 580.198 787.72 588.201 791.413 596.331C791.899 597.399 792.244 599.458 793.09 600.193C794.519 601.435 793.259 600.728 795.26 600.517C796.986 600.335 798.778 599.548 800.52 599.256C804.724 598.55 809.03 598.429 813.27 598.011C818.142 597.529 822.431 597.278 827.306 597.514C831.843 597.734 836.309 596.386 840.825 596.087C850.506 595.446 860.053 595.784 869.727 595.965C877.265 596.106 886.917 595.21 893.892 598.71C900.88 602.216 898.469 610.29 892.543 613.365C885.442 617.05 877.084 617.576 870.027 621.331C875.323 622.961 881.045 622.541 886.44 623.813C889.917 624.633 895.292 625.239 897.913 627.777C900.451 630.236 900.194 634.471 898.519 637.355C896.433 640.945 892.421 641.565 888.81 642.81C890.437 644.966 892.966 644.798 894.43 647.639C896.375 651.418 895.159 655.455 892.777 658.722C887.608 665.815 877.372 666.414 869.381 667.425C861.529 668.419 853.283 668.657 845.378 668.119C840.874 667.812 836.43 667.587 831.982 666.953C826.865 666.223 827.357 669.808 825.534 673.477C823.77 677.029 821.224 678.551 817.284 678.332C813.03 678.094 808.313 677.805 804.099 677.092C800.064 676.41 796.57 674.327 792.7 673.459C789.215 672.676 786.448 671.412 783.137 669.717C779.337 667.772 777.316 664.517 773.99 662.282C770.576 659.988 767.004 663.592 763.647 665.386C755.488 669.745 746.534 671.673 737.61 673.816C728.51 676.002 719.648 678.799 710.393 680.312C706.086 681.015 701.995 680.921 697.708 681.378C692.768 681.905 688.486 683.792 683.441 683.802C665.625 683.839 647.694 687.055 629.87 687.65C612.225 688.239 594.294 686.779 576.668 687.961C567.656 688.566 558.934 687.353 549.972 687.819C540.727 688.301 531.155 687.814 521.929 687.108C502.783 685.643 484.232 686.024 465.287 685.075C455.432 684.581 445.384 683.653 435.653 682.088C426.112 680.554 415.315 682.321 408.567 674.021C407.825 677.275 407.622 680.649 405.244 683.215C402.743 685.913 398.714 687.002 395.366 688.231C386.817 691.368 378.175 694.348 369.567 697.325C361.408 700.148 353.196 703.205 344.972 705.792C336.328 708.511 328.105 711.807 319.607 714.999C311.907 717.891 303.929 720.176 296.509 723.663C293.448 725.101 290.242 725.22 287.316 726.563C283.702 728.221 280.345 729.812 276.473 731.008C273.152 732.034 270.114 732.772 266.9 734.106C263.718 735.427 259.21 737.721 255.88 735.964C253.539 734.73 252.62 731.894 251.9 729.526C250.998 726.565 251.767 721.427 248.261 721.56C244.797 721.691 239.907 725.025 236.511 726.156C232.448 727.51 228.289 729.774 224.104 730.541C219.914 731.308 216.616 731.078 214.418 727.182C211.944 722.798 212.356 718.152 213.096 713.383C205.964 713.366 199.358 714.036 192.164 714.28C188.201 714.415 184.347 714.591 180.395 714.154C176.828 713.761 171.525 714.879 168.431 713.247C162.142 709.927 163.078 700.537 166.25 695.402C168.012 692.551 170.773 690.629 173.579 688.899C177.098 686.731 179.678 684.272 182.76 681.51C180.75 680.125 178.136 680.798 176.165 679.148C174.634 677.868 173.681 675.732 172.982 673.91C171.679 670.513 173.358 662.72 170.418 660.795C168.848 659.768 166.067 660.203 164.273 659.379C161.822 658.254 160.101 656.179 159.045 653.71C156.667 648.144 158.705 642.35 161.025 637.15C152.235 635.651 139.349 635.055 136.835 624.876C136.031 621.625 135.921 617.861 137.027 614.664C138.669 609.92 142.493 609.664 146.733 608.273C164.46 602.455 181.063 593.007 200.162 591.606C210.392 590.856 220.696 590.461 230.914 589.4C241.177 588.334 251.071 586.453 261.402 587.73C265.797 588.273 270.885 587.789 275.089 588.584C279.154 589.351 279.669 594.146 276.562 596.914C273.542 599.603 269.162 597.883 265.566 598.185C260.47 598.612 256.177 601.023 251.419 602.541C239.744 606.267 226.951 608.911 214.776 610.249C208.24 610.967 202.067 611.063 195.669 612.806C189.857 614.39 184.105 616.189 178.273 617.705C184.645 619.409 196.988 619.219 199.109 626.982C200.106 630.635 199 635.69 195.788 637.949C193.923 639.261 189.849 638.662 188.675 640.622C193.692 641.238 199.414 637.378 202.168 642.898C205.311 649.197 202.236 654.169 198.215 658.846C201.768 658.257 205.421 658.928 209.009 658.473C211.778 658.121 214.364 657.288 216.995 658.155C218.315 658.59 218.141 659.766 219.808 659.773C221.02 659.778 222.835 658.46 223.887 657.952C227.885 656.022 231.942 654.452 236.074 652.841C241.102 650.881 245.88 649.374 250.898 648.144C257.827 646.444 264.782 642.081 271.542 639.614C274.406 638.569 278.088 637.498 279.511 634.516C280.979 631.44 279.854 626.936 279.764 623.683C279.509 614.531 279.618 605.366 279.674 596.212C279.721 588.513 279.906 580.959 280.591 573.29C281.41 564.113 280.677 554.969 281.028 545.778C281.351 537.338 280.594 528.918 280.824 520.481C281.081 511.082 281.551 501.717 281.648 492.307C281.821 475.404 282.39 458.521 282.717 441.622C283.053 424.263 284.893 406.897 288.603 389.923C290.265 382.32 292.435 374.576 295.328 367.352C296.244 365.064 297.204 364.934 295.002 363.626C293.696 362.851 292.083 363.717 290.802 363.889C288.108 364.249 285.703 364.408 282.961 364.247C267.243 363.326 250.969 364.071 235.308 365.484C227.163 366.219 218.974 366.919 210.796 367.211C202.64 367.501 194.484 368.766 186.327 368.168C172.66 367.167 157.072 368.731 145.359 359.928C132.86 350.536 134.037 333.895 142.108 321.872C151.015 308.603 165.892 301.043 178.315 291.745C190.52 282.61 204.866 275.91 218.177 268.553C246.672 252.802 277.292 238.223 307.972 227.338C339.186 216.265 370.505 203.535 404.501 205.699C421.724 206.795 440.993 207.435 456.186 216.586C464.302 221.476 472.159 226.574 479.132 233.033C482.417 236.076 485.312 239.826 488.81 242.606C492.061 245.191 495.25 243.421 498.965 242.471C496.333 233.978 493.701 225.484 491.069 216.991C487.435 219.811 482.434 220.883 477.708 219.886C471.971 218.675 472.436 216.224 472.949 211.315C473.189 209.038 473.81 209.427 471.834 207.989C470.214 206.809 467.253 206.423 465.388 205.401C460.735 202.852 456.702 199.109 454.987 193.97C453.282 188.86 454.49 184.12 455.606 179.048C456.947 172.949 453.631 175.499 449.839 172.663C448.171 171.415 447.573 170.331 447.86 168.27C448.094 166.597 451.401 164.188 451.253 162.541C451.074 160.556 449.969 160.778 448.399 159.581C446.667 158.26 445.42 156.64 444.656 154.561C443.038 150.158 446.336 147.438 447.718 143.378C448.388 141.41 449.047 139.727 450.363 138.071C452.695 135.137 453.6 135.201 456.853 135.227C459.592 135.248 459.562 135.024 461.614 132.547C462.41 131.586 463.204 130.631 463.892 129.588C465.074 127.797 465.402 128.04 464.138 126.641C460.286 122.377 458.529 129.034 455.108 128.632C451.151 128.167 450.441 121.892 447.96 119.796C446.224 118.329 444.243 118.888 442.345 117.897C440.023 116.686 439.557 114.377 438.05 112.442C435.604 109.302 432.053 108.748 430.421 104.764C429.495 102.503 429.368 100.175 429.18 97.7776C428.911 94.3646 428.018 91.6666 427.025 88.4176C426.013 85.1036 426.262 82.7086 427.908 79.6596C429.604 76.5176 429.804 75.4606 429.377 71.9166C429.052 69.2186 428.952 66.8236 430.36 64.4166C431.878 61.8226 432.194 60.4686 432.689 57.5136C433.12 54.9226 433.943 53.0566 436.448 51.9816C438.155 51.2486 440.003 52.0646 441.209 50.3956C442.412 48.7296 442.091 46.0606 443.327 44.2196C445.343 41.2166 448.375 40.7466 451.677 40.0696Z" fill="black"/>
<path fill-rule="evenodd" clip-rule="evenodd" d="M551.482 173.516C550.31 170.763 546.389 158.065 552.838 158C557.955 157.948 556.338 168.967 556.401 171.672C556.518 176.735 561.815 177.454 563.796 182.047C566.108 187.402 564.513 193.796 560.91 198.161C558.159 201.492 552.865 205.309 549.086 201.231C544.884 196.693 548.922 194.146 551.864 191.32C556.125 187.225 547.972 186.035 545.855 182.713C542.258 177.067 546.207 174.13 551.482 173.516Z" fill="black"/>
<path fill-rule="evenodd" clip-rule="evenodd" d="M533.007 176.38C532.419 178.994 532.598 184.963 529.758 186.372C524.995 188.735 523.895 177.339 523.932 174.823C523.972 172.147 524.898 165.824 528.844 166.643C533.272 167.562 530.76 175.761 533.007 176.38Z" fill="black"/>
<path fill-rule="evenodd" clip-rule="evenodd" d="M550.823 209.48C557.865 209.699 557.469 218.097 550.716 218.39C544.432 218.663 544.587 209.287 550.823 209.48Z" fill="black"/>
<path fill-rule="evenodd" clip-rule="evenodd" d="M565.8 334.654C565.142 337.452 563.608 340.09 561.309 341.853C561.851 340.747 564.204 334.156 565.8 334.654Z" fill="black"/>
</svg>
