<svg width="1024" height="768" viewBox="0 0 1024 768" fill="none" xmlns="http://www.w3.org/2000/svg">
<path fill-rule="evenodd" clip-rule="evenodd" d="M448.995 335.473C439.895 342.07 441.343 355.051 444.083 364.482C448.117 378.369 456.152 391.224 465.318 402.305C481.579 421.963 509.184 444.036 534.63 426.778C557.29 411.408 571.584 380.395 576.518 354.272C578.043 346.199 580.074 334.17 572.909 328.101C562.317 319.13 543.632 320.762 530.845 321.917C522.424 322.677 514.299 325.258 505.977 324.047C486.642 321.229 465.123 323.781 448.995 335.473Z" fill="#5096F1"/>
<path fill-rule="evenodd" clip-rule="evenodd" d="M841.023 438.343C822.588 461.728 791.246 465.423 763.409 465.194C746.694 465.055 729.946 463.797 713.559 460.391C704.724 458.554 695.949 456.121 687.413 453.198C681.774 451.267 673.38 450.302 670.98 444.26C664.651 428.32 669.308 408.329 671.914 392.149C673.24 383.919 674.236 375.64 675.525 367.404C676.35 362.134 676.745 356.304 678.954 351.374C681.539 345.599 684.805 346.752 690.275 348.347C697.809 350.547 705.546 351.461 713.292 352.644C732.199 355.531 748.694 361.353 765.877 369.605C782.867 377.763 799.348 385.817 814.503 397.161C822.181 402.911 828.797 409.151 834.961 416.478C839.723 422.139 846.829 430.976 841.023 438.343ZM760.438 542.212C760.29 544.73 731.398 537.128 727.596 536.275C702.649 530.68 677.208 524.307 653.657 514.197C631.674 504.761 612.305 493.965 595.006 477.2C586.943 469.385 579.69 461.156 572.75 452.392C569.272 447.999 564.52 448.509 560.641 444.793C557.152 441.448 554.476 438.836 555.567 433.836C564.285 436.133 580.383 450.573 589.421 443.281C594.572 439.125 587.428 434.783 584.129 432.375C577.929 427.846 572.627 422.259 567.698 416.395C576.161 418.036 584.038 421.205 591.403 425.617C594.675 427.577 605.891 434.684 608.502 427.909C610.109 423.738 602.504 418.497 600.133 416.189C594.31 410.524 588.025 403.91 584.934 396.293C592.577 394.52 599.781 400.427 604.986 405.238C610.763 410.58 617.845 416.186 622.69 422.341C625.189 425.515 625.733 429.265 627.685 432.689C629.882 436.541 633.396 439.843 636.754 442.693C643.225 448.186 650.793 452.23 658.561 455.575C676.312 463.217 695.338 468.626 714.259 472.42C723.542 474.282 732.596 475.139 742.018 475.455C749.34 475.701 752.58 477.891 755.376 484.637C762.941 502.893 761.568 522.975 760.438 542.212ZM543.157 403.112C538.923 407.073 533.422 409.558 528.997 413.366C525.103 416.717 520.612 420.292 516.266 423.002C511.626 425.894 508.16 423.866 503.983 421.249C499.079 418.179 493.441 416.934 488.39 414.187C470.927 404.682 449.563 381.393 452.823 360.009C454.204 350.946 458.89 342.028 467.399 337.915C475.127 334.182 486.36 332.109 494.628 335.231C499.291 336.992 502.628 340.879 505.616 344.701C509.1 349.156 510.434 348.454 513.982 344.157C520.332 336.47 530.802 329.726 541.153 329.888C546.297 329.97 551.407 331.054 556.041 333.189C556.669 333.479 557.018 334.355 557.649 334.652C558.423 335.017 559.694 334.258 560.232 334.599C561.589 335.458 562.944 338.141 563.726 339.503C566.866 344.966 572.52 355.68 566.823 360.28C566.819 360.282 567.076 366.504 566.998 367.213C566.596 370.925 565.313 373.989 563.66 377.384C558.695 387.581 551.367 395.432 543.157 403.112ZM551.598 489.392C547.588 490.638 543.268 478.07 547.115 476.064C550.783 474.151 555.229 488.264 551.598 489.392ZM488.61 474.365C487.221 479.112 486.634 484.5 483.238 488.364C480.128 484.674 479.821 477.865 482.837 474.071C484.559 471.907 490.129 469.177 488.61 474.365ZM616.945 391.184C616.923 391.304 621.771 393.623 619.406 396.158C616.174 399.621 616.618 392.881 616.945 391.184ZM636.98 352.492C636.925 357.292 626.763 356.133 626.835 351.305C626.924 345.363 637.04 347.403 636.98 352.492ZM624.85 312.373C625.856 307.978 643.532 301.864 643.05 309.524C642.809 313.364 622.717 321.717 624.85 312.373ZM443.645 461.417C441.664 463.799 438.849 464.738 436.475 466.567C433.984 468.483 432.204 470.969 430.029 473.219C424.055 479.395 416.864 484.47 410.419 490.144C398.571 500.573 387.221 511.786 374.085 520.631C350.61 536.436 323.387 545.081 296.363 552.65C294.124 553.277 287.675 555.808 285.46 553.923C283.071 551.89 284.286 544.736 284.396 542.031C284.844 530.94 286.137 519.718 285.997 508.644C285.939 504.095 284.607 497.629 286.98 493.467C289.63 488.819 297.029 487.459 301.605 485.71C315.516 480.393 328.916 471.424 341.204 463.118C356.309 452.906 371.564 442.525 387.109 432.993C402.338 423.654 419.137 417.4 436.125 412.066C436.912 413.72 428.806 419.042 427.879 419.788C423.435 423.366 418.6 427.075 415.301 431.798C412.965 435.142 410.57 442.708 417.019 442.902C420.145 442.996 424.767 439.972 427.602 438.994C432.284 437.378 437.109 436.244 442.007 435.506C437.796 440.142 423.524 448.47 426.121 456.18C428.64 463.662 443.213 454.931 448.229 454.931C447.407 457.54 445.34 459.381 443.645 461.417ZM271.481 482.3C262.148 485.582 252.582 487.448 242.95 489.567C233.769 491.587 225.283 493.109 215.879 491.926C202.896 490.294 188.528 484.916 186.882 470.163C184.93 452.683 197.275 436.62 207.875 424.079C220.776 408.821 235.262 395.18 250.962 382.829C266.644 370.489 283.571 359.611 301.304 350.427C314.795 343.44 330.032 339.198 344.297 333.954C347.011 332.957 354.517 329.452 357.055 332.357C359.107 334.706 356.315 338.619 355.38 340.8C353.556 345.052 353.305 349.333 352.834 353.898C350.731 374.286 348.199 394.668 347.034 415.144C346.71 420.85 346.138 426.82 346.471 432.53C346.655 435.693 348.301 439.721 347.205 442.809C345.098 448.745 335.449 452.674 330.335 455.326C321.181 460.073 311.487 463.615 302.238 468.155C292.081 473.142 282.191 478.532 271.481 482.3ZM400.913 349.825C403.475 349.473 407.312 348.775 409.596 350.435C412.574 352.599 411.793 355.61 409.042 357.18C406.87 358.421 401.786 358.76 399.64 357.634C395.984 355.717 396.603 350.418 400.913 349.825ZM415.1 397.035C413.03 400.483 405.465 402.744 406.124 396.31C406.689 390.801 418.913 390.686 415.1 397.035ZM412.292 299.906C415.62 301.195 421.659 302.298 422.646 306.579C423.564 310.563 419.789 310.3 417.064 309.203C414.823 308.303 404.84 299.837 412.292 299.906ZM933.686 451.895C931.743 444.331 933.223 435.958 932.15 428.211C931.11 420.701 929.237 413.8 926.551 406.723C920.602 391.055 913.786 376.951 904.143 363.2C885.982 337.305 864.911 314.496 839.468 295.582C814.349 276.91 786.534 261.735 757.069 251.1C725.825 239.821 694.374 235.896 661.425 233.734C651.585 233.089 641.755 232.324 631.971 231.081C624.82 230.173 615.856 229.054 608.786 231.244C604.345 232.621 601.863 236.494 606.702 239.036C610.132 240.838 614.624 241.054 618.413 241.533C613.836 256.073 606.389 270.664 594.587 280.676C583.065 290.451 567.647 293.802 553.106 296.281C545.221 297.624 536.392 298.664 528.385 298.084C523.322 297.719 519.372 295.375 517.329 300.589C515.912 304.212 515.241 308.187 513.372 302.717C511.162 296.25 510.077 296.291 503.202 294.454C489.141 290.698 473.021 287.271 460.754 279.147C448.028 270.719 443.602 257.085 436.497 244.389C434.74 241.251 429.44 234.9 432.148 231.304C434.625 228.016 442.678 228.344 446.366 228.001C450.258 227.639 454.174 227.624 458.079 227.472C460.341 227.385 464.892 228.312 463.981 224.933C462.608 219.84 447.896 220.493 444.243 220.41C437.449 220.258 430.561 220.415 423.801 221.162C390.284 224.869 356.465 231.723 324.031 240.863C261.103 258.595 200.157 291.269 154.233 338.341C110.15 383.526 96.1842 458.717 123.284 516.41C137.368 546.394 167.932 558.711 197.56 568.659C213.188 573.905 229.736 578.01 246.349 577.02C254.321 576.544 261.885 574.398 269.66 572.781C273.051 572.075 276.91 570.95 280.393 571.234C283.029 571.449 285.562 573.869 288.035 572.583C289.79 571.67 290.553 569.05 292.698 567.934C295.274 566.595 298.396 566.111 301.178 565.436C308.909 563.558 316.395 560.512 323.952 558.015C331.767 555.432 339.142 552.106 346.64 548.744C350.426 547.045 359.187 540.141 361.655 545.189C362.779 547.493 362.3 551.936 362.574 554.352C363.054 558.578 363.618 562.795 364.235 567.003C365.593 576.267 367.219 585.493 368.885 594.708C371.892 611.333 375.768 627.249 382.248 642.889C387.422 655.376 391.964 669.53 401.572 679.464C405.766 683.8 411.488 685.751 417.504 684.389C424.346 682.838 427.752 676.623 431.906 671.598C441.045 660.539 456.134 652.066 470.067 649.015C487.128 645.28 503.748 650.743 520.033 655.387C537.26 660.299 554.796 664.979 571.705 670.883C587.461 676.386 604.474 684.513 621.561 683.806C636.463 683.19 650.381 671.062 661.128 661.817C671.921 652.533 685.417 638.938 700.937 640.033C708.643 640.575 715.666 644.293 723.172 645.804C731.413 647.464 740.182 647.699 748.562 648.318C758.964 649.085 782.237 646.373 786.085 633.859C786.656 632.002 786.659 628.179 784.208 627.436C781.952 626.754 780.8 629.39 778.664 629.27C774.317 629.025 770.92 621.446 768.532 618.511C758.895 606.666 745.676 597.831 734.862 587.13C722.651 575.048 712.226 560.409 703.025 545.971C707.185 544.89 711.672 546.686 715.698 547.539C720.59 548.575 725.357 549.827 730.177 551.154C735.49 552.617 740.879 553.623 746.271 554.738C750.294 555.568 755.634 555.819 759.265 557.837C762.435 559.599 764.205 561.491 768.14 562.002C772.142 562.522 776.251 562.084 780.272 562.057C791.146 561.983 801.998 561.781 812.821 560.632C851.065 556.569 891.604 540.393 914.601 508.289C920.855 499.557 925.894 489.884 929.079 479.619C931.564 471.604 935.849 460.31 933.686 451.895Z" fill="black"/>
<path fill-rule="evenodd" clip-rule="evenodd" d="M491.106 174.238C484.3 176.35 476.256 173.865 472.344 167.79C468.366 161.613 465.644 154.465 465.096 147.107C464.572 140.057 466.173 132.919 470.331 127.131C474.755 120.974 483.773 114.073 491.857 116.211C493.56 116.662 495.1 117.747 496.628 118.824C498.248 119.966 499.855 121.099 501.628 121.453C502.084 121.544 502.403 121.63 502.641 121.693C502.962 121.779 503.133 121.825 503.285 121.79C503.46 121.75 503.61 121.605 503.932 121.294C504.115 121.116 504.355 120.884 504.687 120.587C505.371 119.976 506.032 119.056 506.678 118.156H506.679C507.113 117.551 507.542 116.954 507.966 116.467C508.783 115.53 509.598 114.583 510.416 113.634C515.674 107.534 521.032 101.317 527.458 96.4923C540.773 86.4953 558.47 81.7736 574.989 82.0083C585.039 82.1506 594.459 85.1308 603.824 88.5189C604.61 88.8032 605.401 89.0854 606.194 89.3686L606.197 89.3696C613.718 92.0537 621.475 94.8222 627.498 100.2C639.476 110.897 642.596 128.608 644.556 143.76C646.678 160.169 640.83 174.286 634.772 188.911V188.913L634.77 188.916V188.917C633.848 191.143 632.921 193.38 632.017 195.638C625.613 211.637 613.858 224.598 599.886 234.474C592.565 239.647 584.475 242.77 576.011 245.508C574.255 246.076 572.51 246.684 570.767 247.291H570.766H570.765C563.974 249.655 557.207 252.011 549.887 252C535.917 251.98 518.033 245.345 512.082 231.582C509.373 225.315 512.011 224.19 517.432 227.596C518.38 228.191 519.323 228.792 520.266 229.392V229.393H520.267L520.27 229.396C527.151 233.778 533.988 238.134 542.07 240.061C559.894 244.313 581.242 237.726 596.871 229.034C612.494 220.345 622.983 207.291 629.993 191.038C637.065 174.64 639.813 158.482 637.085 140.805C634.775 125.824 630.176 112.14 616.677 104.008C587.534 86.455 548.269 87.8693 522.353 110.681C518.798 113.808 515.285 116.851 511.623 119.838C509.294 121.736 506.552 124.013 506.891 127.295C506.965 128.019 507.418 129.276 507.926 130.685C509.39 134.749 511.314 140.086 505.956 137.615C503.747 136.596 501.919 135.209 500.117 133.842C497.148 131.59 494.251 129.392 489.84 128.986C482.297 128.29 473.3 134.084 471.043 141.377C468.891 148.336 472.729 157.857 478.74 161.848C482.122 164.094 485.813 163.984 489.63 163.87C490.014 163.859 490.4 163.847 490.786 163.838C491.08 163.831 491.448 163.812 491.866 163.79C494.434 163.654 498.919 163.418 500.113 165.325C502.57 169.248 493.903 173.371 491.106 174.238ZM581.903 205.281C583.181 202.77 584.445 200.287 585.875 198.043C586.538 197.002 587.62 196.283 588.657 195.594H588.658C588.956 195.396 589.25 195.2 589.53 195C593.025 200.446 589.572 206.28 586.598 211.304C586.253 211.887 585.914 212.459 585.594 213.018C584.653 214.658 583.735 216.366 582.808 218.089C580.828 221.77 578.812 225.517 576.475 228.811C570.777 236.839 558.381 228.154 558.013 219.903C557.731 213.587 562.205 216.336 565.077 218.695C568.033 221.125 569.433 221.73 572.532 219.076C576.697 215.508 579.329 210.337 581.903 205.281ZM548.347 183.034C549.601 174.75 543.929 181.183 542.716 184.993C541.218 189.694 539.979 196.334 542.244 200.999C546.403 209.562 558.128 205.481 563.771 200.932C566.416 198.799 570.123 194.356 569.997 190.653C569.778 184.21 564.815 188.073 561.762 190.449H561.761C561.372 190.752 561.014 191.031 560.7 191.261C560.574 191.354 560.439 191.453 560.298 191.557C557.466 193.649 551.838 197.806 548.54 195.749C545.509 193.86 546.724 189.373 547.68 185.843C547.966 184.79 548.228 183.822 548.347 183.034ZM565.122 149.625C571.817 148.292 580.44 148.979 586.265 152.775C593.771 157.665 583.902 161.186 579.627 161.624C574.452 162.152 567.836 162.502 563.083 159.963C556.346 156.364 558.592 150.927 565.122 149.625ZM488.68 137.208C483.561 136.213 476.417 138.797 479.941 144.885C482.571 149.429 489.051 150.958 494.122 152.155C494.738 152.3 495.334 152.441 495.899 152.581C501.537 153.981 504.326 151.917 502.385 145.698C500.505 139.679 494.2 138.282 488.68 137.208ZM595.574 200.887C596.045 198.92 598.792 191.526 600.648 196.954C600.933 197.788 600.968 199.012 601.005 200.319C601.099 203.622 601.207 207.461 605.409 206.903C607.577 206.616 608.604 204.44 609.556 202.424C610.028 201.425 610.481 200.465 611.045 199.793C616.775 192.97 615.018 205.875 613.521 209.105C610.221 216.223 600.985 221.128 596.404 212.097C594.7 208.738 594.708 204.498 595.574 200.887ZM617.145 172.191H617.146C619.804 175.278 624.234 180.425 627.14 176.697C629.976 173.058 625.096 167.419 622.663 164.608C622.557 164.486 622.456 164.369 622.36 164.258C622.291 164.177 622.217 164.091 622.139 164C619.939 161.434 614.298 154.855 611.434 159.783C609.643 162.868 613.844 168.683 615.841 170.725C616.196 171.088 616.638 171.602 617.145 172.191ZM539.071 232.746C536.328 229.596 536.615 223.758 538.169 220.113C539.435 217.145 541.552 220.819 542.779 222.946C543.078 223.465 543.324 223.891 543.492 224.107C544.041 224.814 544.83 225.469 545.641 226.142C547.33 227.544 549.111 229.022 548.995 231.193C548.711 236.497 541.482 235.513 539.071 232.746Z" fill="black"/>
<path fill-rule="evenodd" clip-rule="evenodd" d="M778.058 193.545C775.046 192.728 772.039 191.911 769.047 191.07C762.087 189.112 768.663 184.706 772.799 185.016C775.999 185.255 779.125 186.377 782.2 187.48C783.559 187.967 784.908 188.451 786.249 188.854C799.627 192.871 812.028 197.264 824.526 203.499C826.39 204.43 834.602 208.843 829.17 210.797C826.317 211.823 820.577 208.735 816.558 206.573C815.273 205.882 814.165 205.286 813.382 204.948C802.036 200.056 790.015 196.792 778.058 193.545ZM891.667 292.689C846.915 264.926 802.353 237.733 751.738 221.828C749.1 221 748.28 218.647 749.664 216.316C751.122 213.859 753.925 213.949 756.41 214.029L756.622 214.036C763.171 214.243 769.567 216.311 775.76 218.314L776.548 218.569C790.709 223.142 804.197 229.486 817.497 236.117C840.815 247.739 863.254 261.801 883.822 277.79C888.122 281.131 892.53 283.839 897.206 286.571C897.496 286.741 897.798 286.914 898.108 287.092C900.996 288.749 904.576 290.803 905.617 294.025C908.546 303.093 893.765 293.991 891.667 292.689ZM169.042 284.437C152.688 297.16 136.707 310.407 121.922 324.927C116.658 330.097 112.271 336.01 107.888 341.92C105.881 344.626 103.874 347.331 101.784 349.963C101.56 350.245 101.313 350.575 101.044 350.934C99.362 353.176 96.8454 356.531 94.0997 356.16C90.6057 355.69 89.8994 349.672 90.0108 347.044C90.3924 338.082 98.5773 329.427 104.414 323.256C110.98 316.317 118 309.555 125.169 303.237C133.062 296.281 141.628 290.302 150.357 284.449C153.547 282.31 156.687 280.047 159.834 277.78C165.141 273.957 170.463 270.123 176.06 266.854C180.259 264.402 187.231 263.469 184.946 270.85C183.611 275.162 178.368 278.427 173.793 281.276C172.02 282.38 170.348 283.421 169.042 284.437ZM110.466 266.798C119.672 263.932 128.208 259.483 136.744 255.034C142.306 252.135 147.869 249.236 153.616 246.776C157.749 245.006 161.942 243.387 166.134 241.768C169.905 240.311 173.675 238.855 177.402 237.29C177.753 237.142 178.133 237.002 178.524 236.857C180.476 236.135 182.691 235.315 182.955 233.015C183.317 229.831 181.458 229.926 179.187 230.042H179.186C179.04 230.049 178.892 230.057 178.742 230.063C173.566 230.296 168.093 232.59 162.921 234.758C160.786 235.654 158.701 236.528 156.71 237.226C154.937 237.848 153.162 238.455 151.388 239.061C145.832 240.961 140.292 242.856 134.873 245.179C127.663 248.269 120.3 251.466 113.807 255.914C113.577 256.072 113.337 256.233 113.091 256.399C110.941 257.846 108.339 259.598 107.409 261.988C106.478 264.374 106.991 267.881 110.466 266.798Z" fill="black"/>
<path fill-rule="evenodd" clip-rule="evenodd" d="M491.608 205.331C492.478 202.779 503.238 174.877 499.026 174.036C494.565 173.143 488.602 189.332 487.308 192.257C482.529 203.059 479.699 214.649 477.482 226.236C475.937 234.304 474.58 242.569 475.121 250.817C475.537 257.156 478.155 258.116 482.469 262C482.469 242.746 485.395 223.555 491.608 205.331Z" fill="black"/>
</svg>
