<svg width="862" height="220" viewBox="0 0 862 220" fill="none" xmlns="http://www.w3.org/2000/svg">
<rect width="463" height="220" rx="50" fill="#5096F1"/>
<path d="M308 110L194 175.818L194 44.1821L308 110Z" fill="#E0E0E0"/>
<path d="M544.42 70H540.71L534.9 55.51H512.85L507.04 70H503.33L521.81 23.8H525.94L544.42 70ZM514.11 52.29H533.64L523.84 27.23L514.11 52.29ZM572.28 70V35H575.43L575.64 42.28C576.667 39.76 578.323 37.8 580.61 36.4C582.943 35 585.533 34.3 588.38 34.3C591.413 34.3 594.027 35.0233 596.22 36.47C598.46 37.9167 600 40.04 600.84 42.84C601.447 41.0667 602.427 39.55 603.78 38.29C605.133 36.9833 606.72 35.98 608.54 35.28C610.36 34.58 612.25 34.23 614.21 34.23C616.637 34.23 618.83 34.72 620.79 35.7C622.797 36.6333 624.383 38.08 625.55 40.04C626.763 41.9533 627.37 44.3567 627.37 47.25V69.93H623.87V47.6C623.87 44.1467 622.937 41.58 621.07 39.9C619.25 38.1733 616.823 37.31 613.79 37.31C611.597 37.31 609.567 37.8467 607.7 38.92C605.833 39.9467 604.34 41.4167 603.22 43.33C602.147 45.1967 601.61 47.3667 601.61 49.84V70H598.11V47.67C598.11 44.2167 597.177 41.65 595.31 39.97C593.443 38.2433 591.017 37.38 588.03 37.38C585.93 37.38 583.947 37.8933 582.08 38.92C580.213 39.9467 578.697 41.4167 577.53 43.33C576.363 45.2433 575.78 47.53 575.78 50.19V70H572.28ZM659.777 84.7V35H662.927L663.207 44.73L662.717 44.17C663.324 42.1633 664.257 40.4133 665.517 38.92C666.824 37.4267 668.411 36.2833 670.277 35.49C672.144 34.6967 674.174 34.3 676.367 34.3C679.354 34.3 682.037 35.0233 684.417 36.47C686.797 37.9167 688.687 39.9933 690.087 42.7C691.487 45.4067 692.187 48.6733 692.187 52.5C692.187 56.28 691.487 59.5467 690.087 62.3C688.687 65.0067 686.774 67.0833 684.347 68.53C681.967 69.9767 679.261 70.7 676.227 70.7C673.007 70.7 670.207 69.86 667.827 68.18C665.447 66.4533 663.791 64.1433 662.857 61.25L663.277 60.62V84.7H659.777ZM675.807 67.62C679.774 67.62 682.901 66.2667 685.187 63.56C687.521 60.8533 688.687 57.1667 688.687 52.5C688.687 47.8333 687.544 44.1467 685.257 41.44C682.971 38.7333 679.867 37.38 675.947 37.38C673.474 37.38 671.281 38.01 669.367 39.27C667.501 40.4833 666.007 42.2333 664.887 44.52C663.814 46.76 663.277 49.42 663.277 52.5C663.277 55.5333 663.814 58.1933 664.887 60.48C665.961 62.7667 667.431 64.54 669.297 65.8C671.211 67.0133 673.381 67.62 675.807 67.62ZM736.877 70.7C733.657 70.7 730.787 69.9767 728.267 68.53C725.747 67.0833 723.763 65.0067 722.317 62.3C720.917 59.5467 720.217 56.28 720.217 52.5C720.217 48.72 720.917 45.4767 722.317 42.77C723.763 40.0167 725.7 37.9167 728.127 36.47C730.553 35.0233 733.33 34.3 736.457 34.3C739.63 34.3 742.337 35 744.577 36.4C746.817 37.8 748.543 39.76 749.757 42.28C750.97 44.7533 751.577 47.6233 751.577 50.89C751.577 51.31 751.553 51.73 751.507 52.15C751.507 52.5233 751.483 52.8733 751.437 53.2H722.387V50.05H749.897L748.147 50.54C748.1 46.5267 747.027 43.33 744.927 40.95C742.873 38.57 740.027 37.38 736.387 37.38C733.867 37.38 731.65 37.9867 729.737 39.2C727.823 40.3667 726.33 42.0933 725.257 44.38C724.183 46.62 723.647 49.3267 723.647 52.5C723.647 55.6267 724.183 58.3333 725.257 60.62C726.377 62.9067 727.917 64.6567 729.877 65.87C731.883 67.0367 734.193 67.62 736.807 67.62C739.513 67.62 741.823 67.0367 743.737 65.87C745.697 64.7033 747.213 63.0933 748.287 61.04L751.087 62.65C750.247 64.33 749.127 65.7767 747.727 66.99C746.327 68.1567 744.717 69.0667 742.897 69.72C741.077 70.3733 739.07 70.7 736.877 70.7ZM781.862 70V35H784.802L785.222 42.35C786.108 39.8767 787.532 37.9167 789.492 36.47C791.452 35.0233 793.808 34.3 796.562 34.3C797.495 34.3 798.335 34.3933 799.082 34.58C799.828 34.7667 800.435 35.07 800.902 35.49L800.132 38.57C799.618 38.2433 799.058 37.9867 798.452 37.8C797.845 37.6133 796.935 37.52 795.722 37.52C793.948 37.52 792.268 38.08 790.682 39.2C789.095 40.2733 787.812 41.79 786.832 43.75C785.852 45.6633 785.362 47.88 785.362 50.4V70H781.862ZM841.256 70.7C838.036 70.7 835.166 69.9767 832.646 68.53C830.126 67.0833 828.143 65.0067 826.696 62.3C825.296 59.5467 824.596 56.28 824.596 52.5C824.596 48.72 825.296 45.4767 826.696 42.77C828.143 40.0167 830.079 37.9167 832.506 36.47C834.933 35.0233 837.709 34.3 840.836 34.3C844.009 34.3 846.716 35 848.956 36.4C851.196 37.8 852.923 39.76 854.136 42.28C855.349 44.7533 855.956 47.6233 855.956 50.89C855.956 51.31 855.933 51.73 855.886 52.15C855.886 52.5233 855.863 52.8733 855.816 53.2H826.766V50.05H854.276L852.526 50.54C852.479 46.5267 851.406 43.33 849.306 40.95C847.253 38.57 844.406 37.38 840.766 37.38C838.246 37.38 836.029 37.9867 834.116 39.2C832.203 40.3667 830.709 42.0933 829.636 44.38C828.563 46.62 828.026 49.3267 828.026 52.5C828.026 55.6267 828.563 58.3333 829.636 60.62C830.756 62.9067 832.296 64.6567 834.256 65.87C836.263 67.0367 838.573 67.62 841.186 67.62C843.893 67.62 846.203 67.0367 848.116 65.87C850.076 64.7033 851.593 63.0933 852.666 61.04L855.466 62.65C854.626 64.33 853.506 65.7767 852.106 66.99C850.706 68.1567 849.096 69.0667 847.276 69.72C845.456 70.3733 843.449 70.7 841.256 70.7Z" fill="#414141"/>
<path d="M572.16 116.4L545.76 189H528.05L501.54 116.4H517.6L532.89 162.6L537.07 176.9L541.14 162.71L556.54 116.4H572.16ZM589.201 126.08C586.048 126.08 583.701 125.42 582.161 124.1C580.621 122.707 579.851 120.69 579.851 118.05C579.851 115.337 580.621 113.32 582.161 112C583.701 110.607 586.048 109.91 589.201 109.91C592.355 109.91 594.701 110.607 596.241 112C597.781 113.32 598.551 115.337 598.551 118.05C598.551 120.69 597.781 122.707 596.241 124.1C594.701 125.42 592.355 126.08 589.201 126.08ZM596.681 134V189H581.611V134H596.681ZM633.446 190.1C628.9 190.1 624.83 188.963 621.236 186.69C617.716 184.417 614.93 181.153 612.876 176.9C610.896 172.647 609.906 167.55 609.906 161.61C609.906 155.523 610.97 150.353 613.096 146.1C615.223 141.773 618.083 138.51 621.676 136.31C625.343 134.037 629.45 132.9 633.996 132.9C638.836 132.9 642.833 134.293 645.986 137.08C649.14 139.867 651.193 143.46 652.146 147.86L650.716 149.62V109.91H665.786V189H652.256L651.266 172.28L653.136 173.16C652.623 176.607 651.45 179.613 649.616 182.18C647.783 184.673 645.473 186.617 642.686 188.01C639.9 189.403 636.82 190.1 633.446 190.1ZM637.846 178.55C640.486 178.55 642.76 177.89 644.666 176.57C646.573 175.177 648.04 173.16 649.066 170.52C650.166 167.88 650.716 164.727 650.716 161.06C650.716 157.54 650.203 154.57 649.176 152.15C648.15 149.657 646.683 147.75 644.776 146.43C642.87 145.11 640.633 144.45 638.066 144.45C633.96 144.45 630.733 145.917 628.386 148.85C626.113 151.71 624.976 155.927 624.976 161.5C624.976 167.073 626.113 171.327 628.386 174.26C630.66 177.12 633.813 178.55 637.846 178.55ZM707.141 190.1C701.348 190.1 696.288 188.963 691.961 186.69C687.708 184.417 684.408 181.153 682.061 176.9C679.715 172.647 678.541 167.513 678.541 161.5C678.541 155.487 679.715 150.353 682.061 146.1C684.408 141.847 687.671 138.583 691.851 136.31C696.105 134.037 700.945 132.9 706.371 132.9C711.945 132.9 716.675 134.037 720.561 136.31C724.448 138.51 727.418 141.553 729.471 145.44C731.525 149.253 732.551 153.617 732.551 158.53C732.551 159.997 732.515 161.39 732.441 162.71C732.368 164.03 732.258 165.203 732.111 166.23H688.221V155.78H725.511L718.251 158.42C718.251 153.8 717.188 150.243 715.061 147.75C713.008 145.257 710.075 144.01 706.261 144.01C703.475 144.01 701.055 144.67 699.001 145.99C697.021 147.31 695.518 149.29 694.491 151.93C693.465 154.497 692.951 157.76 692.951 161.72C692.951 165.607 693.501 168.833 694.601 171.4C695.775 173.893 697.388 175.763 699.441 177.01C701.568 178.257 704.098 178.88 707.031 178.88C710.258 178.88 712.861 178.257 714.841 177.01C716.821 175.763 718.361 174.04 719.461 171.84L731.451 176.46C730.278 179.32 728.481 181.777 726.061 183.83C723.715 185.883 720.891 187.46 717.591 188.56C714.365 189.587 710.881 190.1 707.141 190.1ZM770.402 132.9C775.976 132.9 780.852 134.037 785.032 136.31C789.286 138.583 792.586 141.847 794.932 146.1C797.352 150.353 798.562 155.487 798.562 161.5C798.562 167.44 797.352 172.573 794.932 176.9C792.586 181.153 789.286 184.417 785.032 186.69C780.852 188.963 775.976 190.1 770.402 190.1C764.902 190.1 760.026 188.963 755.772 186.69C751.519 184.417 748.182 181.153 745.762 176.9C743.416 172.573 742.242 167.44 742.242 161.5C742.242 155.487 743.416 150.353 745.762 146.1C748.182 141.847 751.519 138.583 755.772 136.31C760.026 134.037 764.902 132.9 770.402 132.9ZM770.402 144.12C767.616 144.12 765.232 144.78 763.252 146.1C761.346 147.347 759.879 149.253 758.852 151.82C757.826 154.387 757.312 157.613 757.312 161.5C757.312 165.387 757.826 168.613 758.852 171.18C759.879 173.747 761.346 175.69 763.252 177.01C765.232 178.257 767.616 178.88 770.402 178.88C773.116 178.88 775.426 178.257 777.332 177.01C779.312 175.69 780.816 173.747 781.842 171.18C782.869 168.613 783.382 165.387 783.382 161.5C783.382 157.613 782.869 154.387 781.842 151.82C780.816 149.253 779.312 147.347 777.332 146.1C775.426 144.78 773.116 144.12 770.402 144.12ZM833.172 190.1C827.599 190.1 822.502 189.11 817.882 187.13C813.335 185.15 809.632 182.363 806.772 178.77L815.462 169.97C817.222 172.61 819.569 174.773 822.502 176.46C825.435 178.147 828.919 178.99 832.952 178.99C835.812 178.99 838.085 178.587 839.772 177.78C841.532 176.9 842.412 175.543 842.412 173.71C842.412 172.537 842.009 171.547 841.202 170.74C840.395 169.86 838.782 169.163 836.362 168.65L826.682 166.67C820.302 165.35 815.755 163.37 813.042 160.73C810.402 158.017 809.082 154.533 809.082 150.28C809.082 147.273 809.962 144.45 811.722 141.81C813.555 139.17 816.269 137.043 819.862 135.43C823.455 133.743 827.929 132.9 833.282 132.9C838.782 132.9 843.549 133.78 847.582 135.54C851.689 137.227 854.915 139.757 857.262 143.13L848.242 151.93C846.629 149.363 844.502 147.42 841.862 146.1C839.295 144.707 836.582 144.01 833.722 144.01C831.669 144.01 829.909 144.23 828.442 144.67C826.975 145.11 825.875 145.733 825.142 146.54C824.409 147.273 824.042 148.227 824.042 149.4C824.042 150.573 824.555 151.6 825.582 152.48C826.609 153.287 828.479 153.983 831.192 154.57L842.412 156.88C847.839 157.98 851.725 159.85 854.072 162.49C856.419 165.057 857.592 168.173 857.592 171.84C857.592 175.36 856.639 178.513 854.732 181.3C852.899 184.013 850.149 186.177 846.482 187.79C842.889 189.33 838.452 190.1 833.172 190.1Z" fill="#414141"/>
</svg>
